<?xml version="1.0" encoding="UTF-8"?>
<svg xmlns="http://www.w3.org/2000/svg" id="Capa_1" data-name="Capa 1" viewBox="0 0 1080 1080">
  <defs>
    <style>
      .cls-1 {
        fill: #ddd6cf;
      }
    </style>
  </defs>
  <g>
    <path class="cls-1" d="M208.36,482.35c-1.52,0-3.15.05-4.88.14-3.71.19-6.48.66-8.3,1.41-1.82.75-3.32,2.04-4.5,3.87-1.08,1.69-1.92,3.98-2.5,6.87l-.83-.07.65-13.35h48.94l.65,13.35-.83.07c-.65-3.35-1.67-5.89-3.06-7.61-1.39-1.72-3.41-2.96-6.06-3.71-2.24-.65-6.04-.98-11.39-.98v36.9c0,2.46.14,4.29.42,5.48.28,1.19.79,2.18,1.54,2.95.67.7,1.44,1.21,2.3,1.52.86.31,1.97.51,3.35.58v.83h-23.11v-.83c1.4-.07,2.53-.27,3.38-.58.86-.31,1.62-.82,2.3-1.52.75-.77,1.26-1.75,1.54-2.93.28-1.18.42-3.01.42-5.5v-36.9Z"></path>
    <path class="cls-1" d="M266.5,481.23v.83c-1.38.07-2.49.27-3.35.58-.86.31-1.62.82-2.3,1.52-.94.96-1.52,2.3-1.74,4.01-.14,1.28-.22,2.75-.22,4.41v26.66c0,2,.1,3.58.29,4.74.19,1.16.51,2.09.94,2.79.63.96,1.43,1.68,2.42,2.15.99.47,2.3.75,3.94.85v.83h-23.11v-.83c1.4-.07,2.53-.27,3.38-.6.86-.33,1.61-.83,2.26-1.5.77-.77,1.29-1.75,1.56-2.93.26-1.18.4-3.01.4-5.5v-26.66c0-2.48-.13-4.32-.4-5.5-.27-1.18-.78-2.16-1.56-2.93-.65-.7-1.41-1.21-2.28-1.52-.87-.31-1.99-.51-3.36-.58v-.83h23.11Z"></path>
    <path class="cls-1" d="M312.63,481.23l.62,11.94-.83.04c-.31-2.03-.83-3.7-1.56-5.03-.72-1.33-1.77-2.5-3.15-3.51-1.13-.84-2.47-1.44-4.02-1.79s-3.59-.52-6.15-.52h-8.28v21.7h2.17c2.19,0,3.85-.14,4.96-.43,1.11-.29,2.01-.81,2.71-1.56.67-.7,1.18-1.53,1.5-2.48.33-.95.6-2.36.81-4.21l.83.04-.14,19.39h-.83c-.22-1.86-.54-3.35-.96-4.49-.42-1.13-1.01-2.1-1.75-2.89-.72-.77-1.66-1.34-2.82-1.7-1.16-.36-2.63-.54-4.41-.54h-2.06v8.28c0,3.3.08,5.71.25,7.22.17,1.51.49,2.77.98,3.78.82,1.74,2.07,3.01,3.74,3.82s3.89,1.21,6.64,1.21c2.89,0,5.32-.37,7.27-1.1s3.54-1.88,4.78-3.42c.87-1.04,1.57-2.22,2.12-3.54.54-1.33,1.04-3.08,1.5-5.25l.83.04-.47,14.4h-43.15v-.83c1.38-.07,2.49-.27,3.35-.58.86-.31,1.62-.82,2.3-1.52.75-.77,1.26-1.75,1.54-2.95.28-1.19.42-3.02.42-5.48v-26.66c0-2.46-.14-4.29-.42-5.48-.28-1.19-.79-2.18-1.54-2.95-.65-.7-1.41-1.21-2.26-1.52-.86-.31-1.98-.51-3.38-.58v-.83h38.88Z"></path>
    <path class="cls-1" d="M339.13,506.44v12.8c0,2.46.14,4.29.42,5.48.28,1.19.79,2.18,1.54,2.95.65.68,1.41,1.18,2.26,1.5.86.33,1.98.52,3.38.6v.83h-23.11v-.83c1.4-.07,2.53-.27,3.38-.6.86-.33,1.61-.83,2.26-1.5.77-.77,1.29-1.75,1.56-2.93.26-1.18.4-3.01.4-5.5v-26.66c0-2.48-.13-4.32-.4-5.5-.27-1.18-.78-2.16-1.56-2.93-.65-.7-1.41-1.21-2.28-1.52-.87-.31-1.99-.51-3.36-.58v-.83h17.43c2.92,0,4.83.01,5.75.04,3.74.17,6.67.67,8.79,1.52,2.39.96,4.24,2.41,5.55,4.32s1.97,4.14,1.97,6.67c0,3.76-1.42,6.78-4.27,9.04-.87.67-1.83,1.23-2.88,1.66-1.05.43-2.45.84-4.21,1.23,1.45.6,2.52,1.23,3.22,1.88.55.51,1.06,1.14,1.52,1.9.46.76,1.14,2.1,2.06,4.03,2.15,4.41,3.77,7.64,4.87,9.68,1.1,2.04,2.02,3.51,2.77,4.43.6.75,1.19,1.27,1.75,1.56.57.29,1.34.48,2.33.58v.83h-12.01c-.6-1.33-.99-2.17-1.16-2.53l-2.53-5.75c-1.52-3.45-3.05-6.5-4.59-9.15-1.54-2.63-2.95-4.42-4.23-5.39-.65-.48-1.35-.83-2.1-1.03s-1.66-.31-2.75-.31h-1.77ZM339.13,505.64h1.38c2.99,0,5.13-.17,6.42-.51,1.29-.34,2.5-1.04,3.64-2.1,2.53-2.41,3.8-5.4,3.8-8.97,0-1.9-.37-3.7-1.1-5.37s-1.75-3.06-3.06-4.14c-1.01-.82-2.22-1.39-3.62-1.72-1.4-.33-3.39-.49-5.97-.49h-1.48v23.29Z"></path>
    <path class="cls-1" d="M390.8,506.44v12.8c0,2.46.14,4.29.42,5.48.28,1.19.79,2.18,1.54,2.95.65.68,1.41,1.18,2.26,1.5.86.33,1.98.52,3.38.6v.83h-23.11v-.83c1.4-.07,2.53-.27,3.38-.6.86-.33,1.61-.83,2.26-1.5.77-.77,1.29-1.75,1.56-2.93.26-1.18.4-3.01.4-5.5v-26.66c0-2.48-.13-4.32-.4-5.5-.27-1.18-.78-2.16-1.56-2.93-.65-.7-1.41-1.21-2.28-1.52-.87-.31-1.99-.51-3.36-.58v-.83h17.43c2.92,0,4.83.01,5.75.04,3.74.17,6.67.67,8.79,1.52,2.39.96,4.24,2.41,5.55,4.32s1.97,4.14,1.97,6.67c0,3.76-1.42,6.78-4.27,9.04-.87.67-1.83,1.23-2.88,1.66-1.05.43-2.45.84-4.21,1.23,1.45.6,2.52,1.23,3.22,1.88.55.51,1.06,1.14,1.52,1.9.46.76,1.14,2.1,2.06,4.03,2.15,4.41,3.77,7.64,4.87,9.68,1.1,2.04,2.02,3.51,2.77,4.43.6.75,1.19,1.27,1.75,1.56.57.29,1.34.48,2.33.58v.83h-12.01c-.6-1.33-.99-2.17-1.16-2.53l-2.53-5.75c-1.52-3.45-3.05-6.5-4.59-9.15-1.54-2.63-2.95-4.42-4.23-5.39-.65-.48-1.35-.83-2.1-1.03s-1.66-.31-2.75-.31h-1.77ZM390.8,505.64h1.38c2.99,0,5.13-.17,6.42-.51,1.29-.34,2.5-1.04,3.64-2.1,2.53-2.41,3.8-5.4,3.8-8.97,0-1.9-.37-3.7-1.1-5.37s-1.75-3.06-3.06-4.14c-1.01-.82-2.22-1.39-3.62-1.72-1.4-.33-3.39-.49-5.97-.49h-1.48v23.29Z"></path>
    <path class="cls-1" d="M477.3,530.6h-23.76v-.83c2.15-.19,3.64-.55,4.49-1.08,1.49-.94,2.24-2.24,2.24-3.91,0-.99-.34-2.31-1.01-3.98l-.62-1.52-3.47-8.54h-15.92l-1.88,4.99-.9,2.24c-1.09,2.65-1.63,4.74-1.63,6.26,0,.89.2,1.72.6,2.5.4.77.93,1.4,1.61,1.88.94.65,2.15,1.04,3.62,1.16v.83h-16.21v-.83c1.28-.07,2.4-.39,3.36-.94.96-.55,1.9-1.45,2.82-2.68.77-.99,1.53-2.26,2.26-3.82s1.71-3.89,2.91-7l13.24-34.11h2.06l15.73,38.02c1.18,2.87,2.12,4.92,2.82,6.15.7,1.23,1.46,2.16,2.28,2.79.58.43,1.24.77,1.99,1s1.87.43,3.36.6v.83ZM454.58,509.26l-7.6-18.74-7.16,18.74h14.76Z"></path>
  </g>
  <g>
    <path class="cls-1" d="M634.03,504.81v14.43c0,2.46.13,4.27.4,5.44s.77,2.15,1.52,2.95c.65.7,1.42,1.21,2.3,1.54.88.33,2.01.52,3.38.6v.83h-23.12v-.83c1.16,0,2.26-.19,3.29-.56,1.04-.37,1.84-.87,2.42-1.5.68-.75,1.16-1.77,1.45-3.08.29-1.3.43-3.1.43-5.39v-26.66c0-1.54-.08-3.15-.25-4.81-.24-2.12-1.28-3.7-3.11-4.74-1.01-.55-2.42-.88-4.23-.98v-.83h37.8l1.05,11.76-.83.18c-.6-1.83-1.16-3.21-1.66-4.12-1.13-2.1-2.72-3.73-4.78-4.88-1.18-.67-2.54-1.15-4.09-1.41-1.54-.26-3.67-.4-6.37-.4h-5.61v21.34h1.45c4.27,0,7.37-.95,9.3-2.86.84-.82,1.48-1.79,1.92-2.91.44-1.12.72-2.59.87-4.4l.83.04-.22,21.92h-.87c-.27-2.46-.72-4.36-1.36-5.7-.64-1.34-1.61-2.42-2.91-3.24-.96-.6-2.15-1.04-3.56-1.32-1.41-.28-3.23-.42-5.45-.42Z"></path>
    <path class="cls-1" d="M701.43,481.23l.62,11.94-.83.04c-.31-2.03-.83-3.7-1.56-5.03-.72-1.33-1.77-2.5-3.15-3.51-1.13-.84-2.47-1.44-4.02-1.79s-3.59-.52-6.15-.52h-8.28v21.7h2.17c2.19,0,3.85-.14,4.96-.43,1.11-.29,2.01-.81,2.71-1.56.68-.7,1.18-1.53,1.5-2.48s.6-2.36.81-4.21l.83.04-.14,19.39h-.83c-.22-1.86-.54-3.35-.96-4.49-.42-1.13-1.01-2.1-1.75-2.89-.72-.77-1.66-1.34-2.82-1.7s-2.63-.54-4.41-.54h-2.06v8.28c0,3.3.08,5.71.25,7.22.17,1.51.49,2.77.98,3.78.82,1.74,2.07,3.01,3.74,3.82s3.89,1.21,6.64,1.21c2.89,0,5.32-.37,7.27-1.1s3.54-1.88,4.78-3.42c.87-1.04,1.57-2.22,2.12-3.54.54-1.33,1.04-3.08,1.5-5.25l.83.04-.47,14.4h-43.15v-.83c1.38-.07,2.49-.27,3.35-.58.86-.31,1.62-.82,2.3-1.52.75-.77,1.26-1.75,1.54-2.95.28-1.19.42-3.02.42-5.48v-26.66c0-2.46-.14-4.29-.42-5.48-.28-1.19-.79-2.18-1.54-2.95-.65-.7-1.41-1.21-2.26-1.52-.86-.31-1.98-.51-3.38-.58v-.83h38.88ZM682.11,475.4l7.09-8.9h7.23l-12.59,8.9h-1.74Z"></path>
    <path class="cls-1" d="M727.92,506.44v12.8c0,2.46.14,4.29.42,5.48.28,1.19.79,2.18,1.54,2.95.65.68,1.4,1.18,2.26,1.5.86.33,1.98.52,3.38.6v.83h-23.11v-.83c1.4-.07,2.53-.27,3.38-.6.86-.33,1.61-.83,2.26-1.5.77-.77,1.29-1.75,1.55-2.93.27-1.18.4-3.01.4-5.5v-26.66c0-2.48-.13-4.32-.4-5.5-.27-1.18-.78-2.16-1.55-2.93-.65-.7-1.41-1.21-2.28-1.52-.87-.31-1.99-.51-3.36-.58v-.83h17.43c2.92,0,4.84.01,5.75.04,3.74.17,6.67.67,8.79,1.52,2.39.96,4.24,2.41,5.55,4.32s1.97,4.14,1.97,6.67c0,3.76-1.42,6.78-4.27,9.04-.87.67-1.83,1.23-2.88,1.66-1.05.43-2.45.84-4.21,1.23,1.45.6,2.52,1.23,3.22,1.88.55.51,1.06,1.14,1.52,1.9.46.76,1.14,2.1,2.06,4.03,2.15,4.41,3.77,7.64,4.87,9.68,1.1,2.04,2.02,3.51,2.77,4.43.6.75,1.19,1.27,1.75,1.56.57.29,1.34.48,2.33.58v.83h-12.01c-.6-1.33-.99-2.17-1.16-2.53l-2.53-5.75c-1.52-3.45-3.05-6.5-4.59-9.15-1.54-2.63-2.96-4.42-4.23-5.39-.65-.48-1.35-.83-2.1-1.03-.75-.21-1.66-.31-2.75-.31h-1.77ZM727.92,505.64h1.38c2.99,0,5.13-.17,6.42-.51,1.29-.34,2.5-1.04,3.63-2.1,2.53-2.41,3.8-5.4,3.8-8.97,0-1.9-.37-3.7-1.1-5.37-.74-1.68-1.75-3.06-3.06-4.14-1.01-.82-2.22-1.39-3.62-1.72s-3.39-.49-5.97-.49h-1.48v23.29Z"></path>
    <path class="cls-1" d="M783.61,482.35c-1.52,0-3.15.05-4.88.14-3.71.19-6.48.66-8.3,1.41s-3.32,2.04-4.5,3.87c-1.08,1.69-1.92,3.98-2.5,6.87l-.83-.07.65-13.35h48.94l.65,13.35-.83.07c-.65-3.35-1.67-5.89-3.06-7.61-1.39-1.72-3.41-2.96-6.06-3.71-2.24-.65-6.04-.98-11.39-.98v36.9c0,2.46.14,4.29.42,5.48.28,1.19.79,2.18,1.54,2.95.68.7,1.44,1.21,2.3,1.52.86.31,1.97.51,3.35.58v.83h-23.11v-.83c1.4-.07,2.53-.27,3.38-.58.86-.31,1.62-.82,2.3-1.52.75-.77,1.26-1.75,1.54-2.93.28-1.18.42-3.01.42-5.5v-36.9Z"></path>
    <path class="cls-1" d="M841.75,481.23v.83c-1.38.07-2.49.27-3.35.58-.86.31-1.62.82-2.3,1.52-.94.96-1.52,2.3-1.74,4.01-.14,1.28-.22,2.75-.22,4.41v26.66c0,2,.1,3.58.29,4.74.19,1.16.51,2.09.94,2.79.62.96,1.43,1.68,2.42,2.15.99.47,2.3.75,3.94.85v.83h-23.11v-.83c1.4-.07,2.53-.27,3.38-.6.86-.33,1.61-.83,2.26-1.5.77-.77,1.29-1.75,1.55-2.93.27-1.18.4-3.01.4-5.5v-26.66c0-2.48-.13-4.32-.4-5.5-.27-1.18-.78-2.16-1.55-2.93-.65-.7-1.41-1.21-2.28-1.52-.87-.31-1.99-.51-3.36-.58v-.83h23.11Z"></path>
    <path class="cls-1" d="M849,530.6v-.87c2.44,0,4.32-.69,5.64-2.06.75-.77,1.26-1.75,1.54-2.95.28-1.19.42-3.02.42-5.48v-26.66c0-2.56-.15-4.44-.45-5.66-.3-1.22-.86-2.21-1.68-2.98-.68-.63-1.43-1.08-2.26-1.38-.83-.29-1.9-.46-3.2-.51v-.83h23.11v.83c-1.33.07-2.41.25-3.26.54-.84.29-1.59.75-2.24,1.38-.82.8-1.38,1.8-1.66,3-.29,1.21-.43,3.08-.43,5.61v20.87c0,3.21.08,5.59.25,7.16.17,1.57.49,2.85.98,3.83.84,1.74,2.1,3.01,3.76,3.82s3.87,1.21,6.62,1.21,5.29-.38,7.25-1.14,3.57-1.94,4.83-3.53c.84-1.08,1.54-2.31,2.08-3.69.54-1.37,1.04-3.18,1.5-5.43l.87.07-.47,14.83h-43.19Z"></path>
  </g>
  <g>
    <g>
      <path class="cls-1" d="M616.04,446.71c0,.39,0,.59-.2.79l-5.75,4.76c-14.29,11.91-27,32.36-32.36,41.09,8.74-2.38,13.7-3.38,23.82-9.73,0,0,4.56-2.78,4.76-2.78v.79l-2.19,1.99c-10.51,9.33-12.31,12.7-14.68,22.22l-9.73,2.78c4.77-7.54,6.16-10.52,14.31-18.46l-.4-.4c-8.34,2.97-9.93,3.37-17.08,5.36-21.44,35.33-44.85,69.07-86.74,69.07-4.94,0-9.5-.75-13.33-2.26l1.22-1.09c3,1.12,6.54,1.76,10.53,1.76,32.03,0,57.25-38.27,71.56-59.88.94-1.42,6.1-8.34,6.96-9.55,10.51-14.62,25.69-32.84,42.56-42.92l6.15-3.56h.59Z"></path>
      <path class="cls-1" d="M610.05,450.99l-.6.5c-14.77,12.31-27.7,33.4-32.57,41.34l-.87,1.42-.12.03-.21.34c-20.93,34.49-42.9,65.62-80.4,68.39,11.84-2.05,23.9-9.22,35.93-21.38,12.14-12.27,22.02-27.19,29.23-38.09l.16-.24c.63-.96,3.34-4.62,5.12-7.05.85-1.16,1.54-2.09,1.82-2.47,14.54-20.22,28.76-34.57,42.25-42.64l.25-.15M600.88,485.22c-8.33,7.71-10.12,11.4-12.26,19.82l-6.67,1.91c.1-.16.2-.32.3-.48,3.51-5.64,5.45-8.74,12.47-15.58l.73-.71-.72-.72-.4-.4-.16-.16c2.02-.97,4.2-2.16,6.7-3.69M616.04,446.71h-.59l-6.15,3.56c-16.87,10.09-32.06,28.31-42.56,42.92-.87,1.21-6.02,8.13-6.96,9.55-14.31,21.61-39.52,59.88-71.56,59.88-3.98,0-7.53-.64-10.53-1.76l-1.22,1.09c3.83,1.5,8.39,2.26,13.33,2.26,41.89,0,65.3-33.74,86.74-69.07,7.15-1.99,8.74-2.4,17.08-5.36l.4.4c-8.15,7.94-9.54,10.92-14.31,18.46l9.73-2.78c2.38-9.52,4.17-12.9,14.68-22.22l2.19-1.99v-.79c-.2,0-4.76,2.78-4.76,2.78-10.13,6.35-15.08,7.34-23.82,9.73,5.36-8.74,18.06-29.18,32.36-41.09l5.75-4.76c.2-.2.2-.39.2-.79h0Z"></path>
    </g>
    <g>
      <path class="cls-1" d="M473.22,549.61c-4.94,0-9.5-.75-13.33-2.26l1.22-1.09c3,1.12,6.54,1.76,10.53,1.76,32.03,0,57.25-38.27,71.56-59.88.94-1.42,6.1-8.34,6.96-9.55,10.51-14.62,25.69-32.84,42.56-42.92l6.15-3.56h.59c0,.39,0,.59-.2.79l-5.75,4.76c-38.96,32.48-54.76,111.95-120.29,111.95Z"></path>
      <path class="cls-1" d="M593.47,436.4l-.6.5c-13.6,11.34-24.16,27.97-35.34,45.58-19.75,31.09-40.13,63.2-78.87,65.95,11.86-2.04,23.94-9.21,35.99-21.39,12.14-12.27,22.02-27.19,29.23-38.09l.16-.24c.63-.96,3.34-4.62,5.13-7.05.85-1.15,1.54-2.09,1.82-2.47,14.54-20.22,28.76-34.57,42.25-42.64l.25-.15M599.46,432.11h-.59l-6.15,3.56c-16.87,10.09-32.06,28.31-42.56,42.92-.87,1.21-6.02,8.13-6.96,9.55-14.31,21.61-39.52,59.88-71.56,59.88-3.98,0-7.53-.64-10.53-1.76l-1.22,1.09c3.83,1.5,8.39,2.26,13.33,2.26,65.53,0,81.33-79.47,120.29-111.95l5.75-4.76c.2-.2.2-.39.2-.79h0Z"></path>
    </g>
    <g>
      <path class="cls-1" d="M499.19,502.67c19.36,0,41.61-20.92,45.84-36.95l.67-2c0-.22-.44-.66-.67-.66s-.22.22-.44.44l-1.33,3.33c-1.12,2.9-2.67,5.79-4.45,8.46-10.46,15.36-24.48,25.6-40.05,25.6-9.35,0-15.14-4.68-15.14-12.02,0-19.58,33.16-44.72,70.32-44.72,12.24,0,24.26,2,36.05,4.23,11.79,1.99,23.36,4.22,34.27,4.22,6.67,0,27.59-2,36.27-7.56l2.45-1.56c.22,0,.44-.44.44-.66s-.23-.45-.44-.45l-2.67.67c-14.69,2.88-19.81,3.12-29.38,3.12-18.03,0-51.85-3.79-75.44-3.79-35.83,0-77.66,11.56-77.66,40.27,0,12.91,9.34,20.03,21.36,20.03Z"></path>
      <path class="cls-1" d="M562.63,443.47c10.97.29,23.32,1.15,35.34,1.98,12.61.88,24.52,1.7,32.96,1.7,9.78,0,14.88-.27,29.23-3.07l-.17.11c-8.23,5.27-28.62,7.4-35.73,7.4-9.59,0-19.55-1.71-30.1-3.52-1.33-.23-2.66-.46-3.98-.68-8.4-1.58-17.86-3.25-27.54-3.93M543.34,443.81c-33.21,4.14-60.72,26.81-60.72,45.06,0,4.45,2,8.01,5.5,10.28-5.85-3.11-9.28-8.93-9.28-16.51,0-15.89,13.48-25.08,24.79-29.99,10.73-4.66,24.76-7.75,39.71-8.84M662.98,442.37l-2.67.67c-14.69,2.88-19.81,3.12-29.38,3.12-18.03,0-51.85-3.79-75.44-3.79-35.83,0-77.66,11.56-77.66,40.27,0,12.91,9.34,20.03,21.36,20.03,19.36,0,41.61-20.92,45.84-36.95l.67-2c0-.22-.44-.66-.67-.66s-.22.22-.44.44l-1.33,3.33c-1.12,2.9-2.67,5.79-4.45,8.46-10.46,15.36-24.48,25.6-40.05,25.6-9.35,0-15.14-4.68-15.14-12.02,0-19.58,33.16-44.72,70.32-44.72,12.24,0,24.26,2,36.05,4.23,11.79,1.99,23.36,4.22,34.27,4.22,6.67,0,27.59-2,36.27-7.56l2.45-1.56c.22,0,.44-.44.44-.66s-.23-.45-.44-.45h0Z"></path>
    </g>
  </g>
  <g>
    <path class="cls-1" d="M434.93,587.4h1.79v12.73h-1.79v-12.73ZM435.81,587.4h7.13v1.7h-7.13v-1.7ZM435.81,593.08h6.17v1.7h-6.17v-1.7Z"></path>
    <path class="cls-1" d="M456.51,587.4h1.52l4.69,12.73h-1.93l-3.53-10.27-3.53,10.27h-1.92l4.69-12.73ZM453.98,595.64h6.7v1.7h-6.7v-1.7Z"></path>
    <path class="cls-1" d="M482.76,587.4h1.67v12.73h-1.74v-9.53l.09.56-3.13,7.2h-1.24l-3.13-7.03.09-.74v9.53h-1.74v-12.73h1.67l3.74,8.4,3.74-8.4Z"></path>
    <path class="cls-1" d="M498.33,600.13h-1.79v-12.73h1.79v12.73Z"></path>
    <path class="cls-1" d="M510.44,587.4h1.79v12.73h-1.79v-12.73ZM511.33,598.43h7.28v1.7h-7.28v-1.7Z"></path>
    <path class="cls-1" d="M532.89,594.96v5.17h-1.79v-5.17l-3.88-7.55h1.99l2.78,5.74,2.78-5.74h1.99l-3.88,7.55Z"></path>
    <path class="cls-1" d="M572.13,587.4h1.22l2.61,9.98,2.25-9.98h1.86l-3.11,12.73h-1.82l-2.35-8.89-2.45,8.89h-1.82l-3.11-12.73h1.86l2.25,9.98,2.61-9.98Z"></path>
    <path class="cls-1" d="M592.74,600.13h-1.79v-12.73h1.79v12.73Z"></path>
    <path class="cls-1" d="M604.85,587.4h1.62l6.22,9.84-.21.23v-10.07h1.77v12.72h-1.64l-6.21-9.69.21-.23v9.92h-1.77v-12.72Z"></path>
    <path class="cls-1" d="M626.37,587.4h1.79v12.73h-1.79v-12.73ZM627.24,587.4h7.31v1.7h-7.31v-1.7ZM627.24,592.96h6.35v1.7h-6.35v-1.7ZM627.24,598.43h7.31v1.7h-7.31v-1.7Z"></path>
    <path class="cls-1" d="M648.13,600.09c-.55-.12-1.06-.29-1.54-.53-.47-.23-.92-.53-1.33-.88l1.11-1.37c.48.42,1.02.74,1.6.95.58.21,1.22.31,1.9.31.92,0,1.64-.17,2.14-.51s.76-.82.76-1.45h0c0-.45-.12-.8-.35-1.06s-.53-.45-.89-.58c-.36-.12-.83-.24-1.41-.35-.02,0-.04,0-.06,0-.02,0-.04,0-.06,0l-.13-.03c-.85-.15-1.54-.31-2.08-.49s-.99-.52-1.37-1.01c-.38-.49-.57-1.18-.57-2.08h0c0-.8.18-1.47.53-2.03.35-.56.87-.98,1.54-1.27.68-.29,1.49-.44,2.44-.44.46,0,.9.05,1.34.15.44.1.88.25,1.3.44.43.2.85.44,1.27.74l-1.02,1.42c-.48-.36-.97-.62-1.45-.8-.48-.18-.96-.27-1.45-.27-.87,0-1.54.17-2.03.52-.48.35-.72.84-.72,1.48h0c0,.45.12.79.37,1.04s.56.44.93.56c.37.12.88.24,1.54.37.02,0,.04.01.07.01.02,0,.04,0,.06.01.03,0,.06.01.1.02.03,0,.07.01.1.02.77.16,1.41.34,1.93.56s.95.56,1.29,1.05.52,1.14.52,1.97v.02c0,.78-.18,1.44-.55,1.99-.37.55-.9.97-1.6,1.26-.7.29-1.54.43-2.53.43-.61,0-1.19-.06-1.74-.17Z"></path>
  </g>
  <g>
    <path class="cls-1" d="M487.69,628.12c-.41.02-.73.08-.98.17-.25.09-.47.24-.68.44-.16.15-.27.32-.35.5-.08.18-.13.41-.16.69-.05.37-.08.81-.08,1.32v7.9c0,.74.04,1.28.13,1.64.09.36.24.64.46.86.39.38.95.59,1.66.62v.25h-6.85v-.25c.42-.02.75-.08,1-.18.25-.1.48-.24.68-.44.22-.23.37-.52.46-.87.08-.35.12-.89.12-1.62v-9.58l-5.52,12.95h-.22l-5.49-12.75v9.39c0,.74.04,1.28.12,1.63.08.35.23.64.46.87.2.21.43.36.68.45s.58.15.99.17v.25h-4.94v-.25c.41-.02.74-.08.99-.17s.48-.24.68-.45c.22-.23.37-.52.46-.87.08-.35.12-.89.12-1.62v-7.9c0-.33,0-.64-.03-.93-.04-.53-.12-.91-.25-1.16-.18-.34-.42-.58-.73-.75-.31-.16-.72-.25-1.24-.28v-.25h4.65l4.64,11.46,4.81-11.46h4.4v.25Z"></path>
    <path class="cls-1" d="M493.4,627.88h11.48v.25l-9.27,14.05h3.43c2,0,3.46-.29,4.37-.86.74-.45,1.33-1.14,1.77-2.07.19-.39.32-.85.42-1.36h.25s-.33,4.62-.33,4.62h-12.68v-.25l9.36-14.05h-3.07c-1.11,0-1.98.08-2.62.24-.64.16-1.21.44-1.72.84-.41.33-.73.69-.95,1.09-.22.4-.36.87-.43,1.43l-.25-.02.25-3.91Z"></path>
    <path class="cls-1" d="M525.9,642.51h-7.04v-.25c.64-.06,1.08-.16,1.33-.32.44-.28.67-.66.67-1.16,0-.29-.1-.69-.3-1.18l-.18-.45-1.03-2.53h-4.72l-.56,1.48-.27.67c-.32.79-.48,1.4-.48,1.85,0,.26.06.51.18.74.12.23.28.42.48.56.28.19.64.31,1.07.34v.25h-4.8v-.25c.38-.02.71-.11,1-.28s.56-.43.84-.79c.23-.29.45-.67.67-1.13s.51-1.15.86-2.07l3.92-10.11h.61l4.66,11.26c.35.85.63,1.46.84,1.82.21.37.43.64.68.83.17.13.37.23.59.29.22.07.55.13,1,.18v.25ZM519.17,636.18l-2.25-5.55-2.12,5.55h4.37Z"></path>
    <path class="cls-1" d="M545.02,636.91c-.04-.48-.04-.53-.2-1.14-.09-.37-.13-.66-.13-.92,0-.46.11-.97.42-1.71-.48.11-.88.22-1.62.53-.57.2-1.1.33-1.49.33-.7,0-1.25-.59-1.25-1.36s.55-1.36,1.27-1.36c.57,0,.79.07,2.04.55.39.15.72.26,1.05.31-.04-.29-.2-.79-.46-1.49-.31-.72-.42-1.19-.42-1.62,0-.83.53-1.36,1.38-1.36.77,0,1.32.53,1.32,1.27,0,.55-.04.75-.46,1.87-.2.59-.31.94-.37,1.34.39-.09.64-.15,1.38-.46.68-.29,1.14-.39,1.54-.39.86,0,1.41.53,1.41,1.36,0,.79-.53,1.36-1.3,1.36-.48,0-.77-.07-1.87-.5-.26-.09-.68-.22-1.16-.35.29.66.42,1.14.42,1.71,0,.39-.09.94-.22,1.54-.04.15-.06.31-.09.53h-1.19ZM546.2,638.6c.02.53.07.86.2,1.41.07.39.11.68.11.9,0,.48-.11.92-.4,1.49.79-.24,1.01-.31,1.67-.57.5-.2,1.01-.31,1.36-.31.72,0,1.27.57,1.27,1.34s-.55,1.38-1.32,1.38c-.37,0-.94-.13-1.49-.37-.72-.26-1.21-.44-1.49-.48.11.57.18.75.57,1.8.18.48.26.99.26,1.41,0,.77-.53,1.3-1.32,1.3-.86,0-1.41-.55-1.41-1.41,0-.42.11-.86.4-1.54.29-.77.44-1.25.48-1.56-.26.04-.66.15-1.16.35-.99.37-1.45.5-1.87.5-.79,0-1.34-.55-1.34-1.34s.55-1.36,1.25-1.36c.53,0,.75.07,1.91.51.53.2.92.31,1.21.35-.31-.64-.42-1.05-.42-1.49,0-.15.04-.48.15-.97.09-.46.13-.86.18-1.34h1.19Z"></path>
    <path class="cls-1" d="M580.94,642.51h-7.04v-.25c.63-.06,1.08-.16,1.33-.32.44-.28.67-.66.67-1.16,0-.29-.1-.69-.3-1.18l-.18-.45-1.03-2.53h-4.72l-.56,1.48-.27.67c-.32.79-.48,1.4-.48,1.85,0,.26.06.51.18.74.12.23.28.42.48.56.28.19.63.31,1.07.34v.25h-4.8v-.25c.38-.02.71-.11,1-.28.29-.16.56-.43.84-.79.23-.29.45-.67.67-1.13.22-.46.51-1.15.86-2.07l3.92-10.11h.61l4.66,11.26c.35.85.63,1.46.84,1.82.21.37.43.64.68.83.17.13.37.23.59.29.22.07.55.13,1,.18v.25ZM574.21,636.18l-2.25-5.55-2.12,5.55h4.37Z"></path>
    <path class="cls-1" d="M590.23,635.35v3.79c0,.73.04,1.27.12,1.62.08.35.23.65.46.87.19.2.42.35.67.44s.59.16,1,.18v.25h-6.85v-.25c.41-.02.75-.08,1-.18s.48-.24.67-.44c.23-.23.38-.52.46-.87.08-.35.12-.89.12-1.63v-7.9c0-.74-.04-1.28-.12-1.63-.08-.35-.23-.64-.46-.87-.19-.21-.42-.36-.68-.45s-.59-.15-1-.17v-.25h5.17c.86,0,1.43,0,1.7.01,1.11.05,1.98.2,2.61.45.71.29,1.25.71,1.64,1.28.39.57.58,1.23.58,1.98,0,1.12-.42,2.01-1.27,2.68-.26.2-.54.36-.85.49s-.73.25-1.25.36c.43.18.75.36.95.56.16.15.31.34.45.56.13.22.34.62.61,1.2.63,1.31,1.12,2.26,1.44,2.87.32.6.6,1.04.82,1.31.18.22.35.38.52.46.17.09.4.14.69.17v.25h-3.56c-.18-.39-.29-.64-.34-.75l-.75-1.71c-.45-1.02-.9-1.92-1.36-2.71-.46-.78-.88-1.31-1.25-1.6-.19-.14-.4-.25-.62-.31-.22-.06-.49-.09-.81-.09h-.53ZM590.23,635.11h.41c.89,0,1.52-.05,1.9-.15.38-.1.74-.31,1.08-.62.75-.71,1.12-1.6,1.12-2.66,0-.56-.11-1.09-.33-1.59-.22-.5-.52-.91-.91-1.23-.3-.24-.66-.41-1.07-.51-.41-.1-1-.14-1.77-.14h-.44v6.9Z"></path>
    <path class="cls-1" d="M617.65,627.88l.13,4.66-.25.02c-.49-1.59-1.13-2.77-1.9-3.54s-1.7-1.16-2.8-1.16c-.85,0-1.58.17-2.19.52-.61.35-1.18.91-1.71,1.69-1.07,1.59-1.61,3.42-1.61,5.47,0,.98.13,1.9.38,2.77s.63,1.63,1.12,2.3c.96,1.29,2.13,1.93,3.51,1.93.54,0,1.05-.11,1.53-.34.48-.23.87-.54,1.18-.94.42-.56.63-1.22.63-1.98,0-.71-.19-1.22-.57-1.53s-1.01-.47-1.89-.47v-.25h6.84v.25c-.63.06-1.07.14-1.32.26s-.44.32-.56.61c-.14.31-.2.94-.2,1.88,0,.26.01.66.04,1.2l.02.25c-.27-.1-.47-.15-.6-.15-.16,0-.36.08-.6.25-.62.43-1.34.76-2.17.99-.82.23-1.69.34-2.6.34-1.26,0-2.39-.21-3.4-.64-1.01-.43-1.83-1.04-2.46-1.84-.47-.6-.83-1.31-1.09-2.14s-.38-1.71-.38-2.64c0-1.28.23-2.47.69-3.57.46-1.1,1.1-2.01,1.93-2.72.68-.58,1.46-1.03,2.35-1.34.89-.31,1.82-.47,2.81-.47.57,0,1.1.05,1.59.16.49.11,1.01.28,1.56.52l.63.29c.16.06.3.1.43.1.29,0,.5-.23.65-.7h.28Z"></path>
  </g>
</svg>
