<?xml version="1.0" encoding="UTF-8"?>
<svg id="Capa_1" xmlns="http://www.w3.org/2000/svg" version="1.1" viewBox="0 0 554.2 137.3">
  <!-- Generator: Adobe Illustrator 29.0.0, SVG Export Plug-In . SVG Version: 2.1.0 Build 186)  -->
  <g id="Capa_2">
    <g>
      <g>
        <path d="M52.2,2.3v.2c-.6.5-1.2,1.3-1.5,2.1-.5,1-1,2.3-1.4,3.6-.2.5-.4,1-.5,1.4,0,.4,0,1-.2,1.4-.2.7-.4,1.6-.5,2.2-.2.7-.3,1.4-.3,2.2s0,.4-.2.6c-.2.5-.3,1-.4,1.4,0,.5-.4,1-.4,1.5-.2.8-.3,1.7-.5,2.6-.2.4-.2.7-.2,1s0,.6-.2.9v.6c0,.2,0,.6-.2.9-.2.5,0,1.1-.3,1.7-.2.7-.3,1.5-.5,2.3-.2.7-.3,1.5-.5,2.2,0,.7-.4,1.5-.5,2.3,0,.4-.2.7-.3,1.1-.3.7-.3,1.4-.5,2.1,0,.5-.2.9,0,1.4v.5c-.2,1.1-.6,2.2-.7,3.2,0,.7-.3,1.5-.5,2.2s-.4,1.4-.5,2.1c0,.5,0,.8-.2,1.3,0,.5-.2.8-.3,1.2,0,.4-.2.7-.3,1.1,0,.4,0,.7-.2,1.1-.2.5-.2,1-.2,1.6-.2.8-.4,1.4-.5,2-.2.7-.3,1.5-.5,2.1,0,.7,0,1.3-.3,2,0,.6,0,.9-.2,1.5-.2.5-.2,1-.3,1.4-.2.8,0,1.7-.2,2.5,0,.5-.2,1-.2,1.7,0,1.4.2,3,.2,4.5s0,1.8.3,2.5c0,.3.4.6.6.9,0,0,0,.2.2.2.5.5.2,1.3,0,1.4-.8,0-1.7.2-2.4.3-.7,0-1.4.3-2.2.4h-.5c-.4,0-.8,0-1.1,0-1,.2-2.3.2-3.5.3-.3,0-.6,0-.3,0h-.7c-.6,0-1,0-1.6.2-.5,0-1,0-1.5,0-.7,0-.5,0-1.1.2-.2,0-.5.2-.7.2-2.6.3-5.2.7-7.1,1-.5,0-.7,0-1.1.2-.5,0-.8-.2-1.3.2-.3,0-.6.2-.9,0v-.3c-.1,0-.1-.2-.1-.3.8-1.2,1.4-4.1,1.4-5.6s.1-1.7,0-2.5c0-.4,0-.6-.1-1v-1.3c0-.9,0-1.9-.3-2.8v-.4c0-1.2-.3-2.7-.4-3.8,0-.2,0-.6-.2-.9,0-.3,0-.7-.1-.9,0-.3-.1-.5-.1-.8,0-.6-.2-1.3-.3-1.9,0-.7-.3-1.5-.4-2.2v-.7c-.2-.8-.3-1.7-.4-2.5,0-.8-.4-1.7-.6-2.5,0-.6-.1-.9-.3-1.5,0-.5-.1-.8-.2-1.3,0-.8-.2-1.4-.5-2.2,0-.3,0-.6-.1-.8,0-.9-.2-1.7-.3-2.5,0-.7-.2-1.4-.4-2s-.4-1.6-.5-2.4c-.1-.7-.2-1.6-.3-2.2-.1-.6-.3-1.4-.5-2,0-.5-.2-1-.3-1.6v-1.4c0-1.1-.3-2.1-.5-3-.2-.6-.3-1.4-.5-1.8-.3-1-.5-2.6-.8-3.8,0-.7-.3-1.3-.2-1.9,0-.5-.2-.9-.3-1.3s-.2-1-.3-1.5c0-.5-.4-1.2-.5-1.6-.6-2.8-.8-3.4-1.1-4.7,0-.3,0-.5-.2-.8,0-.3-.2-.8-.3-1.2-.2-.7-1.6-3-2.2-3.6-.5-.5-.2-1.3.2-1.5.1,0,.3,0,.5-.1.4.2.8.3,1.1.3.9,0,1.8-.1,2.7-.1s.8,0,1.1-.1h.3c.2.1.3,0,.5,0h5.1c.5,0,1.2-.2,1.6-.2s.9.2,1.4,0c.1,0,.4-.1.6-.1.2-.1.4,0,.6,0h.5c.2,0,.5-.1.8,0h.3c.3-.2.6,0,.9,0s.3-.2.5-.2.5.2.6.5v.2s-.1.3-.2.3c-.5.3-.8.8-1,1.4s-.3,1.3-.5,2c0,.5-.1.8-.1,1.1s0,.9.1,1.4c.2.6.1,1.2.2,1.6.1.5.4,1.1.4,1.8s.1,1.7.5,2.9c0,.5,0,1,.2,1.6.1.4.2.9.3,1.4.1.6.2,1.4.3,2.1.1.6.2,1.3.4,2,.2.7.2,1.4.3,2.1,0,.5.1.7.2,1.2,0,.4,0,.9.1,1.3,0,.2.2.6.3,1v.2c0,.6,0,1,.1,1.5s.1.8.3,1.3v.4c0,.5,0,1.1.1,1.5s.2.8.2,1.3.2,1,.2,1.5.1.8.1,1.3c.2.8.3,1.2.5,2,0,1,.3,2,.5,2.9.1.9.4,1.8.5,2.8,0,.5.1.8.1,1.3s.3,1.3.3,2c.1.7.2,1.1.4,1.8.2,1.4.5,2.8.8,4.1.3,1.4.4,2.1.7,3.5,0-.7.3-2.1.5-2.9,0-.5,0-1.1.2-1.6v-.6c0-.4,0-.8.1-1.1,0-.6.1-.9.2-1.5,0-.6.2-1.2.2-1.9.3-1.2.4-1.8.7-2.9.1-.8.2-1.5.3-2.2,0-.7.2-1.4.3-2.2,0-.3,0-.5.1-.8.1-.7.3-1.4.3-2s.2-1.4.2-2,.2-1.6.3-2.2c0-.4.2-.9.3-1.5v-.7c.1-.5,0-1.1.2-1.6s.1-1,.2-1.5.2-1.2.2-1.7v-.9c0-.3.3-.8.3-1.1s.1-.8.2-1.1c.1-.4.3-1,.3-1.4v-1.3c0-.7.4-1.6.5-2.4,0-.6.2-1.4.3-1.9v-.7c.3-1,.5-2.2.6-3.5,0-.2,0-.4.2-.6,0-.2.2-.4.2-.6,0-1.2.4-2.4.5-3.7,0-.3.2-.7.2-1s0-1-.3-1.5c-.2-.3-.3-.6-.5-1-.2,0-.3-.4-.5-.5-.2-.2-.2-.4-.2-.5s.2-.5.3-.5h8.6c1.6,0,3.3-.1,5,0h4.9c.8,0,.2,0,.4,0s.2.1.3.3v.5h0l-.4.8Z"/>
        <path d="M107,67.1c0,.2,0,.3,0,.5,0,.2-.2.4-.4.5q-.2,0-.3,0c-.2,0-.5,0-.6.2-.4,0-.8-.2-1.1-.2-.9,0-1.4,0-2.4.2h-1.5c-.2,0-.4,0-.6,0h-1.9c-.3,0-.6,0-.9.2-.5.2-1.1.3-1.6.3-1.2,0-2.6.2-3.8.3-.5,0-.7,0-1.1,0-.9,0-1.8.2-2.7.3h-.6c-.3,0-.6-.2-.6-.4,0-.5,0-1,.2-1.4.4-.5.5-1.1.7-1.8,0-.3,0-.6.2-1,.2-.8.2-1.7,0-2.5,0-.6,0-1.3-.2-2.1v-.2c-.2-.2-.2-.3-.4-.3-.8,0-1.3,0-2.1.2h-2.4c-1.3,0-2.7.3-4,.4h-.7c-1.3,0-2.7.2-4,.3-.4,0-.8,0-1.1.3-.2,0-.3,0-.5,0h-1.1c-.2,0-.2,0-.2.2-.2.6-.2,1.2-.3,1.8v3.7c0,.8.2,1.5.5,2.3,0,.2.2.4.3.6,0,0,.4.2.5.5v.3s-.2.2-.3.2c-.8.2-1.6.2-2.4.3-.9,0-1.8.2-2.7.5h-.3c-.5,0-.9,0-1.4,0-1.5.2-3,.2-4.6.4-.3,0-.7,0-1,0h-.6c-.4,0-.8.2-1.3,0-.4,0-.8,0-1.2,0-1.1,0-1.6.2-2.7.3-.2,0-.5,0-.5-.3v-.5s0-.3.2-.4c.2-.2.5-.3.8-.7.2-.3.4-.4.5-.7.5-.9,1-2.2,1.4-3.2s.6-2,.8-3.1c0-.3,0-.7.2-1.1,0-.4,0-1.1.2-1.6,0-.2.3-.6.5-.9.2-.6.2-1.3.4-2,.2-.6.3-1.4.4-2.1,0-.6.2-1.4.3-2.1,0-.5.2-1.1.4-1.7,0-.5.2-1,.3-1.5.3-1,.6-2.2.8-3.1.2-.8.3-1.7.5-2.6.2-1,.5-2,.7-3,0-.6.2-1.2.3-1.8s0-1.5.2-2c0-.3.2-.6.2-.9s0-.6.2-1c.2-.5.2-1.1.2-1.6v-.9c.2-.8.3-1.6.6-2.4v-.2c0-.7.3-1.5.4-2.1,0-.7.3-1.4.4-1.9v-1.7c0-.1,0-.5,0-.7,0-.3.2-.9.3-1.2,0-.2.2-.4.2-.7.2-1.1.4-2.2.5-3.3,0-.5.2-1.1.3-1.6.2-.6.2-1.1.3-1.7,0-.5,0-.7.2-1.1v-1.3c.2-1,.3-2.1.4-3.2v-1.1c.2-1.5.4-3,.2-4.4v-1.2c-.2-1.1-.4-2-.7-2.7-.2-.3-.2-.4,0-.7,0,0,.2-.3.4-.3h16.2c.9,0,2,.1,2.8,0h2.7c.5.1,1.1,0,1.8,0s.3.2.5.2h3.2c.2,0,.3,0,.5.2.2.2.3.5.2.8-.2.5-.4,1.1-.7,1.6,0,.2-.2.6-.2.7,0,.6-.2,1.1-.2,1.6-.4,1-.3,2.2-.2,3.1,0,.9.2,2.1.3,3,0,1.1.4,2,.6,3,0,.4,0,.6.2,1,0,.8.3,1.4.3,2.1s0,.3.2.5c.2.7.4,1.3.4,2s.2,1.1.4,1.8c0,.5,0,1.3.3,1.8v.3c0,.8.3,1.5.4,2.2,0,.5.2,1.2.4,1.8v.7c0,.3,0,.6.2.8.2.5.3.9.4,1.3v.6c0,.6.3,1.7.4,2.4,0,.5.2,1.2.4,1.6.2.5,0,.9.2,1.4.3,1.1.4,1.6.7,2.6.2.7.2,1.3.3,1.9.2.7.2,1.3.3,1.8,0,.5.4,1.1.4,1.6.3,1.2.5,2.5.9,3.7.2.4.3.9.3,1.4v.7c.3.9.6,1.9.8,2.9,0,.2.2.4.2.7.2.7.3,1.4.4,2.2,0,.9.4,1.9.6,2.6.2.7.4,1.6.8,2.3.2.5.3.7.4,1.1.3.7.7,1.5,1.1,2.3.2.4.5.8,1,1,.2,0,.4.2.5.5h0l.2.9ZM73.5,46.7s.2.2.3.3c1.9,0,2.8-.2,4.6-.3,2.2-.2,3.3-.2,5.6-.4.4,0,.8,0,1.1-.2.2,0,.4-.3.4-.5v-.7c-.2-.5-.2-1.1-.4-1.6-.2-.6,0-1.2-.3-1.8-.2-.6-.2-1.3-.4-1.9,0-.3,0-.8-.2-1.1,0-.5-.2-1.1-.2-1.7s0-.3-.2-.5c-.2-.7-.2-1.4-.3-1.9,0-.4,0-.6-.2-.9v-1c-.2-.6-.2-1.2-.4-1.7-.2-.6-.2-1.2-.3-1.8,0-1-.4-1.9-.3-2.8,0-.2,0-.4-.2-.7s-.2-.4-.2-.7c0-.5-.2-1-.2-1.5v-2.1c-.2-.5-.2-1.2-.2-1.7s0-.4-.2-.7c-.2-1-.4-2-.4-3.1s-.2-.4-.3-.6c0-.2-.2-.3-.3-.3h-.7c0,.1,0,.2-.2.3-.2.3-.2.5-.2.9,0,.7-.3,1.5-.5,2.2-.2.5-.4,1-.4,1.6s-.2.5-.2.7v.6c0,.7,0,1.4-.2,2.1-.2.3,0,.6-.2.9v1c-.2.5-.2,1.1-.4,1.6-.2.5-.2,1.3-.5,1.9v1.6c0,.7-.2,1.6-.5,2.3-.2.5-.4,1.2-.5,1.6-.2.7-.4,1.9-.4,2.9s0,1-.3,1.4c-.2.5-.3,1.1-.4,1.6,0,.7-.3,1.6-.3,2.4s-.2,1.3-.4,2c0,.3-.2.7-.3,1.1v1.4h0l-.2-.2Z"/>
        <path d="M134.6,27.9c0,.8.1,2.2.1,3.8s-.1.9-.2,1.4v3.8c0,.9,0,.5,0,.6.1.5.1,1.1,0,1.7v6.7c0,2.7.1,5.5.1,8.2s0,1.3.1,1.8c0,.4.1.9.1,1.3s0,.6.1,1c0,.3,0,.6.1.9.1,1.1.4,2.2.6,2.9.2.6.5,1.2.9,1.8.1.4.3.7.7,1,.2.2.4.4.5.7v.5s-.1,0-.3.2h-.3c-1.1,0-2.3,0-3.4.2-1,0-2.4,0-3.4.2-.7,0-2.1.2-2.4.2s-4.2.3-4.6.3c-1.5.2-3,.2-4.5.3h-2q-.2,0-.3,0v-.3s.8-.7,1.1-1.1c.2-.2.3-.4.5-.7,0-.2.4-.4.5-.7v-.2c.3-.7.6-1.5.8-2.4.2-.5,0-1.1.2-1.5,0-.2,0-.4.2-.7v-.7c.2-.5.2-1.2.2-1.8,0-1.1.2-2.4,0-3.6v-1.9c0-.2,0-.5,0-.8v-1.7c.2-.9,0-1.8,0-2.7s0-1.8,0-2.5c0-.8,0-1.6,0-2.3,0-.3.2-.8.2-1.2v-6.6c0-.5,0-1,.2-1.5v-1.3c0-1.6,0-3.3,0-5v-1.7c0-.9,0-1.8-.2-2.7v-.6c.2-1.1,0-2.3,0-3.3v-4.9c0-1.1,0-2.1-.2-3.1v-.8c0-.2-.2-.3-.2-.5,0-.7-.2-1.5-.3-2.2-.2-1.2-.7-2.3-1.4-3.2,0-.2-.2-.4-.5-.7v-.3c0-.2,0-.4.2-.5s.3-.1.5-.2c.5,0,1,.2,1.4.2h.9c.3,0,.8.1,1.1,0h6.8c.4,0,1.4.3,1.5.2.6-.2,1.3-.1,1.9-.2h2.3c.3-.1.9,0,1.2,0h2.3v.3c0,.2-.1.3-.1.4-.2.3-.5.8-.6,1.2v1.9c0,.2,0,.6.1.8v.5c.1.7.3,1.5.6,2.1.4,1.1.8,2.1,1.4,3,.1.2.3.4.3.6.1.3,0,.6.2.9,0,.2.3.4.4.6.1.6.2,1.1.5,1.6s.5,1,.7,1.3c.3.5.4,1.1.7,1.5.4.9.6,1.4.9,2.3.2.3.3.6.4,1,.2.4.3.6.4,1,0,.5.3.9.4,1.3.3.7.6,1.2.8,1.7s.4.8.5,1.2c.3.9.6,1.6,1.1,2.3.8,1.6,1.4,3.2,2.1,4.6.8,1.6,1.1,2.9,2.3,5,.1-1,0-3.4,0-4.3v-5.5c-.1-1,0-1,0-2v-6.1c0-.4.1-.7.1-1v-2.6c0-.3,0-.7.1-.9v-.8c-.1-.5-.1-.9-.1-1.4v-3.9q0-1.3-.1-2v-.3c0-.7-.4-1.5-.4-2.1-.1-.7-.3-1.5-.7-2-.3-.3-.6-.7-1.1-1-.1-.2-.2-.3-.3-.5s0-.5.2-.6h.9c1.3.3,2.6,0,3.9,0h3.6c1.7-.2,2.9-.1,3.6,0h.7c.9,0,1.9.1,2.8,0h1.4c.5,0,1,0,1.6-.2.2,0,.5,0,.8.2v.6c-.3.2-.5.2-.7.6-.4,1.1-.6,1.6-1,2.6-.1.6-.5,1.2-.5,1.8s-.1,1-.2,1.4v2.1c0,.7,0,1.6-.2,2.4v7.3c0,.2-.1.6-.1.8v16.3c-.1.5-.2,1.1,0,1.5.1.4.2,1,.1,1.5v23.8c0,.2-.2.4-.5.3h-2.6c-.2,0-.5,0-.8,0h-1c-.5,0-1.1,0-2.8,0h-1.1c-.2,0-.5,0-.7,0-.9,0-.9,0-.3,0h-2.1c-.4,0-.6,0-1.1.2-.3,0-.9.2-1.1.2s-1-2.2-2.2-4.5c-1.1-2.3-2.2-4.7-2.6-5.6-.1-.4-.3-.8-.5-1.2-.4-.6-.8-1.3-.9-1.9-.5-1.1-1-2.2-1.5-3.2-.2-.3-.4-.5-.4-.8s0-.6-.2-.9c-.3-.6-.5-1.2-.8-1.8,0-.5-.1-.8-.4-1.1-.1-.3-.4-.8-.5-1.2-.2-.9-.6-1.6-.9-2.3-.2-.5-.4-1-.7-1.4v-.2c-.3-.9-.7-1.5-1.1-2.3-.2-.4-.3-.6-.4-1-.1-.5-.4-.9-.6-1.3-.5-1.3-.8-2.3-1.5-3.5,0-.2-.4-1.4-.5-1.3-.2-.6-.4-1.2-.5-1.5h-.2v-.4Z"/>
        <path d="M209.7,62.3c-.3,0-.7,0-1.1,0h-5.2c-.5,0-1.1.2-1.6,0h-.5c-.7.2-1.4.2-2.1.2h-.4c-1,0-2,0-3,0h-.3c-.4,0-.7,0-1,0h-1.4c-1.4.2-2.8.3-4.2.3h-.1s-.2,0-.2,0v-.3c0-.2.2-.2.3-.3.3-.2.5-.3.6-.6.3-.5.5-1,.8-1.6,0-.5.3-.9.5-1.3.2-.4.2-.9.5-1.4v-.3c0-1,.4-2,.4-3.1s.1-.5.1-.8.1-.7.1-1.1v-3.1c.1-.8.3-1.7.2-2.4v-1.5c.1-.6.1-1.3,0-1.9v-15.9c0-.3.1-.6,0-1v-12.5c0-.3-.2-.4-.6-.4h-1.4c-.5,0-1,0-1.4.2-.4.1-.8.1-1.1.2-.5,0-1.1,0-1.7.2h-.2c-.4.1-.6.1-1,.2-.2.1-.6.2-.8.3-.3.1-.6.2-.9.3-.4.1-.8.2-1.1.3-.8.4-1.4.7-2.1,1.2-.5.2-.8.5-1.2.7s-.7.3-1.1.4c-.1,0-.3-.1-.3-.3v-2.1c.2-.6.1-1.4.2-1.9,0-.2,0-.5.1-.8.1-.6.2-1.2.2-1.8s0-.9.2-1.3v-3.4c.1-.7.1-1.3.2-1.9v-1.6c0-.4.1-.6.4-.9,0,0,.1-.1.2-.1.3-.1.6-.3,1-.3h20.1c.6.1,1.3.1,1.8.1.9,0,2.3.1,3.2,0,.2,0,.5-.1.8,0h.7c.9.2,1.9,0,2.9,0h2c.5,0,1,0,1.5-.1.4-.1.9-.1,1.3,0h2.9c.4,0,.7,0,1.1.1h.8c.4,0,.6.3.9.5,0,.1.1.3.1.4v1c0,.5,0,1,.1,1.4,0,.5,0,.8.1,1.3,0,.6,0,1.3.2,1.9v1c0,.6.1,1.2.2,1.7.1.4,0,1,0,1.4s0,.9.2,1.4v.3c0,.4.1.9.1,1.4s.1.8.1,1.3,0,.2-.1.3c-.1,0-.2.1-.5,0-.1,0-.3,0-.5-.1-.4-.1-.8-.4-1.2-.7-.5-.2-.9-.4-1.3-.5-.3,0-.6-.2-.9-.4-.8-.3-1.6-.4-2.4-.7-.9-.2-1.4-.3-2.4-.5-.3,0-.7-.1-.9-.1s-.5,0-.7-.1c-.4,0-.9-.1-1.2-.1-.7,0-1.5,0-2.1-.2-.1,0-.4.2-.4.3v.3c0,.4,0,.9-.1,1.3-.1.5-.1,1.2,0,1.7v10.3c-.1.3,0,.8,0,1.1,0,.5.1,1.1,0,1.6-.1.4,0,1.1,0,1.5v3c0,.5,0,1.1-.2,1.6v3.3c.1.7.1,1.4.1,2.2v1.3c.1,1.2,0,2.7.1,3.8v.8c0,.2,0,.5.1.8.2.4.2.9.1,1.3v1.3c.1.2.2.5.1.8-.2,1,0,2.3.1,3.5v.5c.2.7.3,1.1.4,1.8.2.8.4,1.4.8,2.1.1,0,.1.2.2.3.2.7.6,1.3,1.1,1.8.1.3,0,.8-.3.8h-.4l1.4.2Z"/>
        <path d="M278.1,59.9c0,0,.1.3,0,.4,0,.2-.2.4-.4.4h-.3c-.2,0-.5,0-.6.2-.4,0-.8-.2-1.1-.2h-4.5c-.6,0-1.2,0-1.9-.2h-.9c-.5.2-1.1.2-1.6.2h-8.2c-.3,0-.6-.2-.6-.4-.1-.4,0-.9.2-1.2.4-.4.5-.9.7-1.5,0-.3,0-.5.1-.9.1-.7.1-1.5,0-2.2-.1-.5,0-1.2-.1-1.8v-.2c-.1-.2-.2-.3-.4-.3h-4.5c-1.3,0-2.7,0-4,0h-4.7c-.4,0-.8,0-1.1.2h-1.6c-.3,0-.2,0-.2.2-.1.5-.1,1-.3,1.6v3.2c.1.7.2,1.3.5,2,0,.2.2.4.3.5,0,0,.4.2.5.4v.3s-.2.2-.3.2c-.8,0-1.6,0-2.4,0-.9,0-1.8,0-2.7.2h-.3c-.5,0-.9,0-1.4,0h-11.4c-.1,0-.5,0-.5-.3v-.4s0-.2.1-.3c.2-.2.5-.2.8-.5.1-.2.4-.3.5-.5.5-.8,1-1.8,1.4-2.7.4-.8.6-1.7.8-2.6,0-.3,0-.6.1-.9.1-.4,0-1,.2-1.3,0-.2.4-.5.5-.8.2-.5.2-1.1.4-1.7.2-.5.3-1.2.4-1.7.1-.5.1-1.2.3-1.7.1-.4.2-.9.4-1.4.1-.4.1-.8.3-1.3.3-.8.6-1.8.8-2.6.1-.7.3-1.5.5-2.2.2-.8.6-1.7.7-2.5,0-.5.2-1,.3-1.5s.1-1.2.2-1.6c0-.2.1-.5.2-.8,0-.3.1-.5.2-.8.1-.5.2-.9.2-1.3v-.8c.2-.7.3-1.3.6-2h0c0-.8.3-1.4.4-1.9.1-.5.3-1.1.4-1.6.1-.4,0-1,0-1.4s0-.4.1-.6c0-.3.2-.7.3-1,0-.1.1-.4.1-.6.1-1,.4-1.9.5-2.8,0-.4.2-.9.3-1.3.2-.5.2-1,.3-1.4,0-.4.1-.6.2-1v-1h0c.2-.9.4-1.9.4-2.8v-1c.1-1.3.4-2.6.2-3.7v-1c-.1-1-.4-1.7-.7-2.3-.1-.2-.1-.4,0-.6,0,0,.2-.2.4-.2h16.2c.9,0,2,.1,2.8,0h2.7c.5.1,1.1,0,1.8,0s.3.1.5.1h3.2c.1,0,.3,0,.5,0,.2.1.3.5.2.7-.2.4-.4,1-.7,1.4,0,.2-.1.5-.2.6,0,.5-.1,1-.1,1.4-.4.9-.3,2-.2,2.7.1.8.2,1.9.3,2.7,0,.9.4,1.8.6,2.7,0,.4.1.5.2.9,0,.7.3,1.3.3,1.8s0,.3.1.4c.1.6.4,1.1.5,1.8,0,.4.2,1,.4,1.5.1.5,0,1.1.3,1.6v.3c0,.7.3,1.3.5,2,0,.4.2,1,.4,1.6v.6c0,.3,0,.5.1.7.1.4.3.8.4,1.2v.5c0,.5.3,1.5.5,2.1,0,.4.2,1,.4,1.4.2.4,0,.8.2,1.3.3,1,.4,1.4.7,2.4.1.6.2,1.2.3,1.7.2.6.2,1.2.3,1.6.1.4.4,1,.5,1.5.3,1.1.5,2.2.9,3.3.1.4.3.8.3,1.3v.6c.3.8.6,1.7.8,2.6,0,.2.1.4.2.6.1.7.3,1.3.4,2,.1.8.4,1.7.6,2.4s.4,1.5.8,2.1c.2.4.3.6.5,1,.3.7.7,1.4,1.1,2.1.2.4.5.7,1,1,.2,0,.4.2.5.4h0v.4ZM244.6,40.1s.2.2.3.3h11.3c.1,0,.4-.2.4-.4v-.6c-.1-.4-.2-1-.4-1.4-.2-.5-.1-1.1-.3-1.5-.2-.5-.2-1.2-.4-1.7,0-.3,0-.7-.1-1-.1-.4-.1-1-.2-1.5,0,0,0-.3-.1-.4-.1-.6-.1-1.2-.3-1.6,0-.3,0-.5-.1-.8v-.9c-.1-.5-.2-1-.4-1.5s-.2-1-.3-1.5c-.1-.9-.4-1.6-.3-2.4,0-.1,0-.4-.1-.6,0-.2-.1-.4-.1-.6,0-.4-.2-.9-.2-1.3v-1.8c-.1-.4-.2-1.1-.2-1.5s0-.4-.1-.6c-.1-.9-.4-1.7-.5-2.7,0-.1-.1-.4-.3-.5,0-.1-.1-.3-.3-.3h-.7s-.1.1-.2.2c-.1.2-.2.5-.2.7,0,.6-.3,1.4-.5,1.9-.2.4-.4.9-.4,1.3s-.1.5-.2.6v.5c0,.6,0,1.2-.2,1.8-.1.2-.1.5-.1.7v.8c-.2.5-.2.9-.4,1.3-.2.5-.2,1.1-.5,1.6v1.4c0,.6-.2,1.4-.5,1.9-.2.4-.4,1-.5,1.3-.2.6-.4,1.6-.4,2.5s-.1.8-.3,1.2c-.2.4-.3,1-.4,1.3-.1.6-.3,1.3-.3,2.1s-.2,1.1-.4,1.7c0,.3-.2.6-.3.9v1.2h-.8Z"/>
        <path d="M288.7,1.8c0-.1,0-.4.3-.5h.3c1.1,0,2.3,0,3.5.1.8.1,1.7.1,2.4,0h1c.7,0,1.3,0,1.9-.1h16c.9,0,.3,0,.5,0,.5.2.9.2,1.4.2h1.6c.6,0,1.3.2,1.9.4.4.1.8.1,1.3.3,1.1.5,2.3.9,3.3,1.3,1.1.5,2.1,1.4,3,2.2.1.2.3.4.5.6.5.5.9,1,1.5,1.5.2.4.5.9.8,1.3.3.5.6,1.1.8,1.6,0,.3.1.4.3.7,0,.3.1.4.2.8,0,.5.2,1,.4,1.5,0,.3.1.6.1.9s0,.7.1,1.1c.2.9.1,2,0,3v.8c0,.3-.1.6-.1.9s-.3.6-.3.9c0,.6-.2,1.2-.3,1.8,0,0,0,.2-.1.3-.2.6-.5,1.3-.8,1.9s-.7,1.3-1.1,1.9c0,0,0,.1-.1.2-.4.5-.6.8-1.1,1.3-.4.4-.9.9-1.1,1.3-.2.3-.5.7-.8,1v.4c.2.2.5.4.8.5.5.2,1.1.5,1.5.8.5.5.8.7,1.4,1.1.2.2.5.5.8.8.3.4.4.5.7.9.3.4.7.8,1,1.2s.6.9.8,1.4c.2.4.5.8.6,1.2.2.4.3.6.5,1.1s.4,1,.5,1.5c.4,1.4.2,2.8.2,4.2s-.1.9-.2,1.4v.5c0,.2-.1.4-.1.6s0,.4-.1.6c-.2.7-.4,1.4-.8,2.1,0,.4-.3.7-.5,1.1-.3.5-.5,1-.9,1.5-.1.2-.2.4-.3.5-.3.7-.8,1.2-1.3,1.7-.4.4-.8.9-1.4,1.2-.2,0-.5.4-.6.5-.2.2-.4.4-.5.5-.2.2-.3.4-.5.4-.4,0-.7.3-1.1.6-.3.2-.7.4-1.1.4l-.9.4c-.5.2-1,.3-1.5.4-.1,0-.4,0-.6,0-.5,0-1,.2-1.4.3-.4,0-.9,0-1.5,0s-.6,0-.9,0c-.8,0-1.2,0-2.1.2h-8.5c-1.2-.3-2.4-.3-3.7-.3h-14.7c-.4,0-1-.2-1.4-.5,0,0-.1-.2,0-.2q0-.2.1-.3c.1-.2.4-.2.6-.4.3-.4.7-.7,1-1.2.1-.4.3-.8.5-1.2.3-.7.6-1.6.8-2.4.2-.8.3-1.6.3-2.4s0-.4.1-.7v-.6c0-.8.1-1.8.1-2.6v-2.4c.2-1.8.1-3.9.1-5.7v-3.5c0-.2-.1-.5,0-.7.1-.4.2-.7.2-1v-18.7c0-.7-.1-1.5-.1-2.1v-3.9c0-.7-.1-1-.2-1.7v-.4c-.1-.7-.3-1.4-.5-2-.2-.5-.3-1.1-.5-1.6-.3-.6-.5-1.2-.9-1.7,0-.2-.1-.2-.3-.4-.2,0-.3-.2-.5-.3,0,0,0-.2-.1-.3h0l-.2-.3ZM318.2,47.4c.1-.2.3-.3.4-.5,0-.3.3-.8.4-1.2,0-.7.2-1.3,0-2-.1-1-.3-2.2-.8-3.3-.1-.2-.2-.5-.4-.8-.5-1-1.1-1.7-2-2-.5-.2-1.1-.5-1.7-.6-.5,0-.7-.2-1.2-.3-.2,0-.5,0-.6-.2-.8-.2-2.1,0-3.2,0h-2.6c-.1,0-.4.2-.4.4,0,.4,0,.6-.1,1v3.8c0,.3-.2.6,0,1v6.1c0,.2.4.6.5.6.5,0,.8,0,1.3.2,1.1,0,1.9-.2,2.5,0,.5,0,1.1,0,1.8.2.4,0,.8,0,1.2,0,.5,0,.9-.2,1.3-.3.4-.2.9,0,1.2-.2.1,0,.3,0,.5,0,.8-.3,1.5-.8,2.1-1.5h0l-.2-.2ZM317.9,17.3v-1c-.2-.4-.3-.7-.5-1.1-.1-.4-.4-.7-.6-.9-.3-.4-.8-.7-1.2-1-.4-.2-.8-.4-1.3-.6-.7-.3-1.3-.5-2.1-.6-.4,0-.6-.1-1.1-.2h-1.3c-.4,0-.9.1-1.2.1h-1.8s-.4.2-.4.3v1.9c.1.6.2,1.3.1,1.9,0,.7-.1,1.5-.1,2.1s-.1,1.5,0,2.1c0,.1,0,.2-.1.4v3.9c0,.1.1.4.3.4h1.8c.6,0,1.4,0,2.1-.1.3,0,.6-.1.9-.1h1.2c.6,0,1.1-.2,1.7-.5.3-.1.7-.3.9-.5.9-.7,1.5-1.2,1.9-2.2,0-.2.2-.5.3-.7.3-.5.5-1.1.5-1.6s0-1.4-.1-2.1h.1Z"/>
        <path d="M344.3,62s0,0,.1-.2v-.2c.2,0,.3,0,.5-.2.5-.2.8-.5,1.1-.9.3-.4.6-.8.7-1.3,0-.3.2-.7.4-1,.2-.6.5-1.3.5-2s0-.3.1-.5v-10.6c0-1.1-.1-2.2,0-3.3v-8.9c0-.5,0-1-.1-1.4V7.5c0-.6,0-.3,0-.4-.1-.3-.1-.8-.1-1.1,0-.7-.1-1-.2-1.7-.1-.5-.3-.9-.5-1.4-.2-.3-.5-.8-.8-1-.2-.1-.5-.3-.6-.5s0-.4,0-.5c.1,0,.2,0,.3-.1.6.1,1.1.2,1.8.2s.8,0,1.1.1h7.7c.4,0,.7-.2,1.1-.1.4,0,.7.1,1,.1,1.1,0,2.1,0,3.2-.1h1.2c.8-.1,1.6,0,2.2-.1h.8s.2.3.1.5h0c-.5.8-1.1,1.6-1.4,2.2,0,.2-.1.4-.2.6,0,.2,0,.3-.1.5-.4.7-.4,1.4-.5,2.1,0,.4,0,.8-.1,1.1-.2.5-.2,1.1-.2,1.7,0,1,0,2.1-.2,3v6.2c-.1.8-.1,1.6-.1,2.4v7.4c0,.8-.1,1.4,0,2.2v1.6c.1.9.2,1.8,0,2.7v1.1c.1.7,0,1.5,0,2.2v1c0,.4.1,1,0,1.4v1.3c-.1.4,0,.9,0,1.3v7.2c0,.2.2.4.5.4h4.9c.7,0,1.3,0,1.9-.2h4.5c.5,0,.9,0,1.4-.2s.8,0,1.3-.3c.4,0,.6,0,1.1-.2.3,0,.5-.3.8-.3.8-.2,1.4-.5,2.1-.9.5-.3,1.1-.8,1.4-1.4,0-.2.2-.3.5-.4h.4c0,.2.1.2.1.5v.5c0,.2-.1.3-.1.5-.1.3-.2.8-.2,1.2v.5c-.1.3-.2.6-.2,1v.9c-.2.7-.2,1.4-.4,2.1-.2.7-.4,1.5-.5,2.1-.1.7-.3,1.5-.4,2.2v.5c-.1.4-.2.9-.3,1.4v.8c0,.2-.1.5-.1.6,0,1.1-.3,2.1-.6,3,0,.2,0,.5-.1.6,0,.2-.2.2-.4,0h-.1c0-.2-.2-.3-.5-.4-1-.4-2-.9-3-1.2,0,0-.2,0-.4-.2-.3,0-.8,0-1.1,0h-.6c-.6,0-1.2-.3-1.8-.3s-1.2,0-1.8-.2h-3.5c-.6-.2-1.2,0-1.8-.2-1.1,0-1.6,0-2.7,0h-5.6c-.6,0-1.2,0-1.8,0h-5.7c-1.3,0-2,0-3.4,0h-1.8s-.3-.2-.3-.4h0l-.5-.4Z"/>
        <path d="M444.8,66.8c0,.2.1.3,0,.5,0,.2-.2.4-.4.5h-.3c-.2,0-.5,0-.6,0-.4,0-.8-.3-1.1-.3-.9,0-1.4,0-2.4-.2-.3,0-.5,0-.8,0s-.5,0-.7,0h-.6c-.6,0-1.2-.2-1.9-.4h-.9c-.5,0-1.1,0-1.6,0-1.3,0-2.6-.3-3.8-.3h-1.1c-.9,0-1.8,0-2.7,0h-.6c-.3,0-.6-.3-.6-.5-.1-.4,0-1,.2-1.3.4-.4.5-.9.7-1.6,0-.3,0-.6.1-1,.1-.7.1-1.6,0-2.3-.1-.6,0-1.3-.2-2v-.2c-.1-.2-.2-.3-.4-.3-.9,0-1.3,0-2.1,0-.5,0-.9,0-1.4-.2h-1c-1.3,0-2.7,0-4-.2h-.7c-1.3-.2-2.7-.2-4-.2h-1.6c-.4,0-.8,0-1.1,0s-.2,0-.2.2c-.1.5-.1,1.1-.3,1.7v3.4c.1.7.2,1.4.5,2.2,0,.2.2.4.3.6,0,.2.4.3.5.5v.3s-.2,0-.3,0h-2.4c-.9,0-1.8,0-2.7,0h-.3c-.5-.2-.9,0-1.5-.2-1.5,0-3-.3-4.6-.4-.3,0-.7,0-1,0h-.6c-.4,0-.8,0-1.3,0h-1.2c-1.1,0-1.6,0-2.7-.2-.1,0-.5-.2-.5-.3v-.4s0-.2.1-.3c.2,0,.5-.2.8-.5.1-.2.4-.3.5-.5.5-.8,1-1.8,1.4-2.7.4-.8.6-1.7.8-2.6,0-.3,0-.7.1-.9.1-.4,0-1,.2-1.4,0-.2.3-.5.5-.8.2-.5.2-1.1.4-1.7.2-.5.3-1.2.4-1.8.1-.5.1-1.3.3-1.8.1-.5.2-.9.4-1.5.1-.5.1-.8.3-1.3.3-.8.6-1.9.8-2.7.1-.7.3-1.5.5-2.2.2-.8.5-1.7.7-2.6,0-.5.2-1,.3-1.6.1-.5.1-1.3.2-1.7,0-.3.1-.5.2-.8,0-.3.1-.5.2-.9.1-.5.2-.9.2-1.4v-.8c.2-.7.3-1.4.6-2.1v-.2c0-.6.3-1.3.4-1.9s.3-1.2.4-1.6,0-1.1,0-1.5,0-.4.1-.6c0-.3.2-.8.3-1.1,0-.1.1-.4.1-.6.1-1,.4-2,.5-2.9,0-.4.2-1,.3-1.4.2-.5.2-1,.3-1.5,0-.4.1-.6.2-1v-1.2c.2-.9.3-1.9.4-2.8v-1c.1-1.3.4-2.7.2-3.9v-1.1c-.1-1-.4-1.8-.7-2.4s-.1-.4,0-.6c0,0,.2-.2.4-.2h16.2c.9,0,2,0,2.8,0h2.7c.5,0,1.1,0,1.8,0s.3.2.5.2h3.2c.1,0,.3,0,.5.2s.3.5.2.7c-.2.5-.4,1-.7,1.5,0,.2-.1.6-.2.7,0,.6-.1,1.1-.1,1.5-.4,1-.3,2.1-.2,3,.1.9.2,2,.3,2.9,0,1.1.4,1.9.6,2.9,0,.4.1.6.2,1,0,.7.3,1.4.3,2s0,.3.1.5c.1.6.4,1.2.5,2,0,.5.2,1.1.4,1.7.1.5,0,1.2.3,1.8v.3c0,.7.3,1.5.5,2.2,0,.5.2,1.1.4,1.8v.6c0,.3,0,.6.1.8.1.5.3.9.4,1.3v.6c0,.6.3,1.7.5,2.4,0,.5.2,1.2.4,1.6.2.5,0,.9.2,1.4.3,1.1.4,1.6.7,2.6.1.7.2,1.3.3,1.9.2.7.2,1.3.3,1.8.1.5.4,1.1.5,1.7.3,1.2.5,2.5.9,3.7.1.4.3.9.3,1.4v.7c.3.9.6,1.9.8,2.9,0,.2.1.4.2.7.1.8.3,1.5.4,2.2.1.9.4,1.9.6,2.7s.4,1.7.8,2.4c.2.5.3.7.5,1.2.3.8.7,1.6,1.1,2.5.2.4.5.9,1,1.2.2,0,.4.3.5.5h0l.3-.8ZM411.2,42.8s.2.2.3.3c1.9,0,2.8,0,4.6.2,2.2,0,3.3.2,5.6.3h1.1c.1,0,.4-.2.4-.4v-.6c-.1-.5-.2-1.1-.4-1.5-.2-.5-.1-1.2-.3-1.7-.2-.6-.2-1.3-.4-1.9,0-.3,0-.7-.2-1-.1-.5-.1-1-.2-1.6,0-.2,0-.3-.1-.5-.1-.7-.2-1.3-.3-1.8,0-.4,0-.5-.1-.9v-1c-.1-.6-.2-1.1-.4-1.6-.2-.5-.2-1.1-.3-1.7-.1-1-.4-1.8-.3-2.6,0-.2,0-.4-.1-.6,0-.2-.1-.4-.1-.6,0-.5-.2-.9-.2-1.4v-2c-.1-.5-.2-1.2-.2-1.6s0-.4-.1-.6c-.1-1-.4-1.9-.5-2.9,0-.2-.1-.4-.3-.6,0-.2-.1-.3-.3-.3h-.7s-.1.1-.2.2c-.1.2-.2.5-.2.8,0,.7-.3,1.4-.5,2-.2.4-.4,1-.4,1.4s-.1.5-.2.6v.6c0,.6,0,1.3-.2,1.9-.1.2-.1.6-.1.8v.9c-.2.5-.2,1-.4,1.4-.2.5-.2,1.2-.5,1.7v1.6c0,.7-.2,1.5-.5,2.1-.2.5-.4,1.1-.5,1.4-.2.6-.4,1.7-.4,2.6s-.1.9-.3,1.3c-.2.4-.3,1-.4,1.4-.1.7-.3,1.4-.3,2.2s-.2,1.2-.4,1.8c0,.3-.2.6-.3.9v1.3h0l-.7-.3Z"/>
        <path d="M450.7,33.6v-2.9c.1-.7.2-1.5.3-2.2.1-1.1.4-2.3.5-3.5,0-.3,0-.6.1-.8.2-.8.4-1.7.6-2.4,0-.5.2-.9.3-1.4,0-.6.4-1.1.5-1.7.2-.7.5-1.5.8-2.1.3-.8.8-1.8,1.1-2.6.3-.7.8-1.7,1.2-2.3.2-.5.6-1,.9-1.5.8-1.2,1.6-2.3,2.4-3.2.6-.8,1.3-1.3,2-2,.5-.5,1-1,1.5-1.4.3-.2.5-.5.8-.6.4-.2.8-.4,1.2-.7.3-.2.5-.4.9-.5h.3c.6-.4,1.3-.5,2-.8.2,0,.5-.2.7-.2.4,0,.8,0,1.1-.2h.5c.6,0,1.3,0,1.9-.3h4.8c.5,0,1.1.2,1.6.3.5,0,1.1.2,1.5.4.5.2.9.3,1.5.4.4,0,.8.3,1.1.4.2.1.4.2.6.3.3,0,.6.2.8.3.3,0,.8.3,1.1.4.7.3,1.4.4,2,.7h1.1c.2,0,.5,0,.8-.2h.3c.2,0,.4.3.3.5,0,.2-.1.3-.2.5-.1.8-.5,1.5-.7,2.1-.3.9-.6,1.8-1,2.7-.4.9-.7,1.8-1.1,2.7-.1.2-.2.4-.3.6-.5,1.3-1,2.6-1.4,3.9-.2.5-.4,1.1-.5,1.4-.1.2-.2.6-.3.9,0,.3,0,.4-.2.7-.2.4-.3.9-.5,1.2,0,0,0,.1-.1.2,0,0-.3.2-.4.2-.2-.1-.9.3-1.1,0-.2-.4-.3-1-.4-1.4,0-.3-.2-.7-.3-1-.3-.5-.6-1-1-1.6-.2-.2-.5-.4-.8-.7-.3-.3-.6-.6-1.1-.8-.2-.1-.3-.2-.5-.3-.8-.5-1.9-.6-2.7-.7-.2,0-.5-.1-.8-.1s-.6,0-.8.2c-.1,0-.3.2-.5.2s-.5.2-.6.3-.5.2-.6.3c-.2.2-.4.2-.6.4-.1,0-.3,0-.4.2-.4.3-.7.6-1,.9-1.1,1.2-1.8,2.5-2.4,3.9-.3.6-.4,1-.7,1.6-.1.4-.3.9-.5,1.3-.1.3-.2.8-.4,1.1,0,.2-.1.4-.1.5,0,.3,0,.7-.2,1v.5c0,.6-.1,1.2-.3,1.8,0,.6-.1.9-.2,1.4s-.1,1-.1,1.4-.2.8-.2,1.2v4.9c.3.8.2,1.7.4,2.5v.3c.1.5.2,1.2.4,1.6.1.5.2,1,.4,1.6,0,.3.1.7.3,1,.3.5.5,1.2.6,1.7.1.7.5,1.5.7,2.2.3.7.4,1,.7,1.8.3.5.7.9.9,1.4,0,.2.2.3.3.5.6.5,1.1,1.1,1.6,1.7.7.9,1.6,1.5,2.6,2,.5.2,1.1.3,1.7.6.1,0,.4,0,.6,0,.7,0,1.4,0,2-.2,0,0,.1,0,.3-.2,1.1-.4,1.8-1.2,2.5-2.1.1-.2.3-.4.4-.6.3-.8.4-1.2.7-1.9,0-.2,0-.5.1-.7,0-.2.5-1,.6-1.1h.3c.3.3.4.5.7.8h0c.3.8.8,1.5,1.1,2.1,0,.2.1.4.2.5.5,1.2.8,1.8,1.4,3,.8,1.5,1.7,3.1,2.6,4.7.5.8,1.1,1.7,1.5,2.6.2.3.5.6.6.9.2.4.4.9.5,1.3,0,.2,0,.5-.1.6h-1.3c-.4,0-.6.2-.9.3s-.5,0-.8,0c-.5.2-1,.4-1.4.7-.3.2-.7.5-1.1.7-.1,0-.3,0-.4.2-.5.6-1.1.8-1.8,1.2,0,0-.2.2-.4,0-.5.2-.9.4-1.2.7-.3.2-.6.5-1,.6-.8.4-1.6.7-2.4,1-.5.2-1.1.2-1.7.3-1.1.2-1.6.3-2.7.2-2.5-.2-3.3-.3-4-.5-.3,0-.6,0-1-.3-.2,0-.6-.2-.9-.3-.6,0-1.3-.4-1.8-.8-.5-.3-1.1-.8-1.5-1.1-.5-.3-1-.7-1.5-1.1-.6-.5-1.2-.9-1.8-1.3-.1,0-.2,0-.3-.2h-.1c-.5-.6-1-1.2-1.5-1.8-.7-.8-1.2-1.6-1.8-2.5-.2-.4-.5-.9-.8-1.4-.2-.3-.3-.6-.5-.9-.3-.7-.7-1.3-.9-1.7-.2-.5-.5-1-.8-1.4-.3-.6-.7-1.2-.9-2-.5-1.2-.7-1.8-1.1-3.1-.3-.8-.4-1.6-.7-2.3-.2-.6-.4-1.2-.5-1.9,0-.5-.1-1-.3-1.5-.2-.6-.2-1.2-.3-1.6-.2-.6-.2-1.1-.2-1.6s0-.9-.1-1.2c0-.2-.1-.5-.1-.8,0-.6,0-1.2-.2-1.7v-.7c-.1-.8,0-2,0-2.9s0-1.3-.2-1.8h.2Z"/>
        <path d="M554.2,79.6c0,.3-.2.6-.4.5-.2,0-.3,0-.5-.2-.2,0-.3,0-.5-.3-1.3-.3-2.3-.5-3.8-.6-.3,0-.7,0-1-.2,0,0-.3,0-.5-.2-.5,0-1.1-.2-1.8-.2s-1,0-1.8-.2c-.7,0-1.4-.3-2.2-.2-.4,0-.8,0-1.1,0-.5,0-1.1,0-1.6-.2,0,0-.2,0-.3,0-.7-.3-1.4-.3-2-.4h-2.8c-.3,0-.6,0-.8-.3-.2,0-1.1-.2-1.4-.3-.2,0-.4,0-.5-.3v-.5c0-.2.3-.7.5-1.1,0-.2.3-.6.2-1.1,0-.7,0-1.4-.2-2.3-.7-1.5-1.4-3.1-2-4.8-.2-.5-.4-.9-.7-1.5-.8-1.8-1.7-3.6-2.4-5.5-.5-.9-.7-1.7-1.1-2.6-.2-.3-.2-.7-.4-1-.7-1.4-1.2-2.9-1.8-4.3,0,0-.2-.4-.2-.6-.6-.9-1-2.1-1.5-3.1-.2-.4-.3-.8-.5-1,0-.2-1.5-3.2-2.5-5.4v20.8c0,.9.2,1.8,0,2.7v.6c.2.7.2,1.4.2,1.9s.3,1.2.3,1.7.2.6.2.8c.4.7.6,1.5.9,2.3,0,.3.2.5.3.7.2.4.3.8.4,1.2v1.2c-.2.3-.3.3-.5.3h-.6c-1.3-.2-2.9-.5-4.6-.6-.7,0-1.5,0-2.2-.3-.6,0-1.4-.2-2-.2h-.5c-1.5-.2-3-.6-4.6-.8h-2c-1-.2-2-.3-3-.4-.2,0-.4-.2-.5-.4v-.4c.3-.4.5-.7.7-1.3,0-.2,0-.3.1-.4.3-.4.5-.9.8-1.3.4-.7.6-1.3.7-2.1.1-.6.3-1.2.5-1.9,0-.3.2-.8.2-1.2v-.7c0-.3.1-.7.1-1.2v-26.4c0-.7-.2-1.5-.2-2.2,0-1.3,0-2.6.1-3.9.1-1,0-2.2,0-3.1v-14.5c-.1-.8-.2-1.6-.2-2.4v-2.4c0-.8,0-.3,0-.4,0-.9-.4-1.7-.7-2.5-.1-.4-.4-.7-.5-1-.1-.2-.2-.4-.4-.5-.2-.2-.5-.3-.8-.5l-.2-.4v-.5c0-.1.1-.4.2-.4h5c1.5,0,2.3.2,3.5.2h3.5c.3.1.6.1,1,0h1.4c.3-.1.8-.1,1.1,0,.5,0,1.3-.1,1.9,0h1.1c.4,0,1-.2,1.3,0,0,0,.3.2.4.4,0,.2,0,.5-.2.7-.5.5-.7.7-1.2,1.2,0,.2-.2.4-.4.5-.2.6-.3.9-.5,1.5-.2.7-.3,1.3-.3,1.9,0,1,0,1.4-.2,2.4s-.2,1.7-.2,2.6v11.4c0,1.4,0,4.3-.2,4.6v1.5c0,1,0,1.9.2,2.8v.3s.2,0,.2-.3c.5-.8.9-1.7,1.4-2.7.3-.7.8-1.6,1.1-2.2.6-1.3,1.2-2.3,1.8-3.3.3-.7.6-1.2.9-1.9.3-.7.7-1.2,1-1.8.3-.8-.2,0,0-.5.3-.7.7-1.5,1.1-2.3.2-.5.6-1.3,1-1.9.6-1.5,1.3-2.9,1.9-4.4.4-1.1,1.1-2.4,1.6-3.7.4-.9.8-1.7,1.3-2.4,0-.2,0-.4.2-.6,0-.2.2-.6.2-.8v-.4c0-.5,0-.9-.3-1.4,0,0-.2-.2-.2-.4s0-.4.2-.5c0-.2.2-.2.4-.3h.2c1,.2,1.9.2,2.9.2s2.2,0,3.3.1h4c.4,0,.8.1,1.1.1h1.1c1.2,0,2.5,0,3.7,0h.8c.4,0,.8,0,1.1-.3s.8,0,1.1.2c0,0,.2,0,.3,0v.4c0,.3-.2.5-.5.6-.7.3-1.5,1.5-2.1,2.2-.2.4-2.2,3.5-2.4,3.9-.2.4-.5,1.1-.9,1.4-.2.2-.3.7-.5.9-.4.9-1,1.6-1.3,2.6-.3.4-.5.6-.8,1-.2.7-.5,1-.8,1.5-.2.4-.5.8-.7,1.4-.8,1.5-1.8,3.1-1.8,3.5-.2.3-.3.6-.5.7-.8,1.3-1.5,2.7-2.2,4.1-.5.9-.9,1.8-1.3,2.6-.5,1-1,2.1-1.5,3-.5.9-1.8,3.5-2.5,4.5.4.8.9,2,1.6,3.8.2.5.8,2.8,1.1,3.1.5.4.6,1.1.9,1.8.2.5.4,1.2.6,1.7.5.7.7,1.6,1.1,2.4,0,.3,0,.4.2.7.5.9.8,1.9,1.3,2.8.2.9.8,1.8,1.2,2.6.4.9.9,1.8,1.4,2.7.3.5.5.9.7,1.3.4.8.6,1.6,1.1,2.3.2.4.5.9.7,1.2.2.7.7,1.4,1.1,2,.2.5.4,1,.7,1.6l.2.2c.4.7.8,1.6,1.1,2.2.5.8,1,1.6,1.2,2.4.6.8,1.1,1.9,1.6,2.6.3.6.9,1.3,1.2,1.8.4.6.8,1.3,1.2,1.8s.9,1.1.8,1.5c.2,0,.3,0,.5.2.4.2.6.5.6.9h0l.5-.5Z"/>
      </g>
      <g>
        <path d="M157.6,131.4h0c.1-.4.3-.8.6-1.1s.4-.4.5-.7c.4-.8.8-1.5,1.2-2.2.2-.3.3-.6.5-.8.2,0,.2-.3.3-.4.2-.4.6-1,1-1.5.1,0,.3-.2.4-.4.3-.7.8-1.2,1.2-1.8.2-.4.4-.8.7-1,.2-.3.4-.4.7-.5.2,0,.3,0,.4,0,.2.2.3.3.3.6s.2.3.2.4c.5.7.9,1.5,1.4,2.3l.2.2c.2.3.4.5.7.9.2.3.6.4.8.7.3.3.6.5.9.7.2.3.4.4.7.6.4.2.6.4,1.5.6.1,0,.7.3.8.3.8.2,1.5,0,2.1,0s.7-.2,1.1-.3h.3c.4-.2,1-.5,1.5-.9.1-.2.3-.3.4-.4.2-.4.5-.6.7-1.3,0-.2.1-.6.1-.8,0-.8-.2-1.2-.3-1.5-.2-.4-.3-.6-.6-.9-.2-.4-.5-.6-.8-.9-.3-.2-.7-.7-1.2-.9-.4-.4-.8-.7-1.3-1-.1,0-.2,0-.3-.2-.7-.3-1.4-.8-1.9-1.2-.3,0-.5-.3-.8-.4,0,0-.2-.2-.2-.2-.6-.3-1-.6-1.4-.9,0,0-.2,0-.3-.2-.4-.4-.8-.8-1.3-1.1-.3-.2-.6-.4-.8-.7-.6-.4-.9-.9-1.6-1.5l-.3-.2c-.3-.2-.7-.5-.9-.8-.1-.2-.3-.3-.5-.6-.5-.4-.9-.9-1.3-1.3-.4-.6-.8-1-1-1.7-.1-.3-.3-.4-.4-.6,0-.3-.2-.4-.3-.7-.1-.3-.2-.6-.3-.8-.2-.3-.3-.6-.4-1-.1-.2-.1-.8-.1-1-.1-.7,0-1,0-1.6s.2-1.7.3-2c.2-.6.3-.9.4-1.6.2-.7.6-1.3.9-1.8.3-.3.5-.7.7-1,.3-.7.7-1.2,1.3-1.7.1,0,.2-.2.3-.2.3-.2.6-.4.9-.6.4-.3.9-.6,1.2-.9.4-.4,1.1-.6,1.6-.8.4-.2.7-.2,1-.3.2,0,.4-.2.6-.2.4,0,.7-.2,1-.2s.6,0,.8-.2h.3c.1,0,.3,0,.5,0,.6,0,1.1-.2,1.7-.2s1.2,0,3.7,0c.4,0,.9.2,1.4.3.2.2.5.2.9.3.3.2.8.3,1.2.6.4.3.9.4,1.4.6.9.4,1.4.5,2.1.8.2,0,.4.2.6.2.3.2.4.2.7.3l.7.2c.2,0,.3,0,.6,0l1.5.2c.2,0,.3,0,.4.2,0,0,.1,0,.1,0,0,.3-.2.6-.3.8-.3.4-.5.8-.8,1.2,0,.3-.3.6-.4.8-.1,0-.2.3-.2.5,0,0,0,0-.1.2-.5.8-.9,1.6-1.3,2.5-.1.3-.3.6-.5,1-.1.3-.2.6-.4.8-.1.2-.1.3-.2.5-.2.5-.4,1.2-.7,1.8-.1.2-.2.4-.4.7-.2.2-.3.2-.5.2s-.2,0-.2-.2c0,0-.2-.7-.3-1l-.2-.4c-.3-.5-.6-.9-.8-1.3-.3-.4-.8-.9-1.3-1.3-.3-.2-.6-.4-.8-.7-.2,0-.3-.3-.6-.4-.2,0-.4,0-.5-.2-.2-.2-.5-.3-.9-.3s-.9-.2-1.4-.3c-.8,0-1.3,0-1.9,0-.6,0-1.1.3-1.9.6-.2,0-.5.3-.7.5-.2,0-.3.2-.4.3,0,0-.1.2-.2.3-.2.2-.2.5-.3.8v.7c0,.2,0,.6.2,1,.1.3.3.6.5.8s.3.4.4.6c.7.6,1.4,1.2,2.1,1.7.4.3.7.4,1.1.7.2.2.6.4.9.6.2,0,.5.3.6.4.2.2.5.4.8.5q.6.3,1.1.7c.1,0,.6.5.7.6.2,0,.4,0,.7.3l.7.6c.6.3,1,.8,1.6,1.2.2.2.8.7,1,1,.7.4.9.6,1.3,1.2.3.2.6.6,1,.8.6.6,1,1.3,1.5,1.9.2.3.4.7.6,1,0,.2.2.4.3.6.3.5.5,1,.7,1.7v.2c.1.5.3.9.4,1.3.2.7.3,1.4.3,1.7s-.1,1.7-.2,1.8c-.1.4-.1.9-.1,1.3v.2c-.2.4-.2.9-.5,1.3-.2.3-.2.7-.4.9-.2.4-.4,1-.7,1.5l-.2.4c-.4.6-.7,1-1.1,1.4-.6.5-1,.9-1.5,1.4-.4.2-.7.6-1.1.9-.6.3-.9.5-1.4.8-.1,0-.3.2-.4.2-1,.3-1.8.7-2.8,1-.5.2-1,.3-1.5.3s-.3,0-.6.1c-.2,0-.4.1-.6.1-.3,0-.6,0-.9.2h-.7c-.4.1-.7,0-1,0s-.6-.1-.9,0c-.3,0-1.4-.1-1.8-.2-.3-.1-.5-.2-.7-.2s-.4-.1-.6-.2c-.2,0-.3-.1-.4-.1-.5,0-1-.2-1.5-.3-.4-.2-.8-.3-1.2-.6-.1,0-.2-.1-.3-.1-.9-.3-1.6-.8-2.3-1-.4-.2-.6-.4-.9-.6-.4-.3-.9-.6-1.4-.8-.3-.3-.6-.4-.9-.6-.2-.1-.4-.2-.6-.3-.5-.2-1-.4-1.5-.5-.3-.1-.7-.1-.9-.2,0,0,0-.1-.1-.2h0l-.3-.8Z"/>
        <path d="M219.7,136.4h-.8c-1.1,0-2.2,0-3.4-.2h-.4c-.4,0-.8.1-1.1,0h-.3c-.5.1-1,.1-1.5,0h-2.6c-.3-.1-.5,0-.7,0h-1c-1,.1-2,.1-3,0h-.1s-.1,0-.2-.1v-.2c0-.1.2-.2.2-.2.2-.1.3-.2.4-.4.2-.4.4-.7.6-1.1,0-.3.2-.7.3-.9.1-.3.2-.7.3-1v-.2c.1-.7.3-1.4.3-2.2s0-.4.1-.6c0-.3.1-.5.1-.8v-2.2c.1-.6.2-1.2.2-1.7v-1c.1-.4,0-.9,0-1.4v-11.6c0-.2.1-.4,0-.7v-9.1c0-.2-.2-.3-.4-.3h-1c-.4,0-.7,0-1,0-.3,0-.6,0-.8,0-.4,0-.8,0-1.2.2h-.2l-.7.2c-.2,0-.4.2-.6.2-.2,0-.4.2-.7.2-.3,0-.6,0-.8.2-.6.3-1,.5-1.5.8-.3.2-.6.3-.9.5-.3.2-.5.2-.8.3-.1,0-.2,0-.2-.2v-1.5c.2-.4.2-.9.2-1.4s0-.4.1-.6c.1-.4.1-.8.2-1.3,0-.3,0-.6.1-.9v-2.5c.1-.5.1-.9.1-1.4v-1.2c0-.3.1-.4.3-.7,0,0,.1,0,.2,0,.2,0,.4-.2.7-.2h14.4c.4,0,.9,0,1.3,0h2.3c.2,0,.4,0,.6,0h4c.4,0,.7,0,1.1,0,.3,0,.6,0,.9,0h2.1c.3,0,.5,0,.8,0h.6c.3,0,.4.2.7.4,0,0,.1.2.1.3v.8c0,.4,0,.7.1,1v.9c.1.4.2.9.3,1.4v.8c0,.4,0,.9.2,1.3v1c0,.3,0,.7.2,1v.2c0,.3,0,.7.1,1,0,.3.1.6.1.9s0,.2-.1.2-.2,0-.3,0c-.1,0-.2,0-.3,0-.3,0-.6-.3-.9-.5s-.6-.3-.9-.4c-.2,0-.4-.2-.7-.3-.6-.2-1.1-.3-1.8-.6l-1.7-.4c-.2,0-.4,0-.7,0s-.3,0-.5,0c-.3,0-.6,0-.9,0-.6,0-1.1,0-1.5-.2-.1,0-.3.2-.3.2v.2c0,.3,0,.6-.1.9-.1.4-.2.8,0,1.2v9.6c-.1.3,0,.8,0,1.1v2.2c0,.4,0,.8-.1,1.2v2.4c.1.6.1,1,.1,1.6v1c.1.9,0,1.8.1,2.8v.6c0,.2,0,.4.1.6.1.3.2.7.1,1v1c.1.2.2.3.1.6,0,.8,0,1.7.1,2.5v.3l.3,1.3c.2.6.3,1,.6,1.5.1,0,.1.1.2.2.2.5.4.9.8,1.4.1.2,0,.6-.2.6h-.3l.4.6Z"/>
        <path d="M269,92.1c-.1.2-.2.3-.4.4,0,.3-.3.6-.4.8-.1,0-.1.2-.2.3,0,.3-.2.7-.3.9-.1.5-.3,1-.3,1.5s0,.5-.1.7v2.4c.1.3.1.7.1,1s0,.7-.1,1v10.4c0,1.2,0,1.9-.1,2.9v6.9c-.1.4,0,.8,0,1.2v1.1c0,.3,0,.7-.2.9v.3c0,.6-.2,1-.2,1.6-.1.4-.2.9-.4,1.3-.1.3-.2.5-.3.9-.1.4-.3.8-.4,1.2,0,.1,0,.2-.1.2-.2.4-.4.8-.7,1.2-.2.5-.6.9-1,1.3-.3.3-.7.6-.9.8-.4.4-.8.7-1.3,1-.4.3-.9.5-1.4.8l-.8.3c-.2,0-.4.1-.5.2-.7.3-1.5.6-2.3.6h-.4c-.2.2-.4.2-.7.2h-1.9c-.2.2-.5.2-.8.2h-2.6c-.2,0-.4,0-.6-.1h-.2c-.3,0-.6,0-.8-.1-.2,0-.5-.2-.8-.3h-.6c-.4,0-.7-.2-1.1-.3h-.2c-.4-.2-.9-.3-1.3-.5-.6-.3-1.1-.6-1.8-.9-.2,0-.3-.2-.4-.3l-1.3-1-1.1-1.1c-.2-.3-.4-.6-.6-.8l-.5-.7c-.3-.3-.6-.7-.7-1.1-.2-1-.3-1.1-.5-2v-1.4c-.2-.5-.2-.9-.2-1.4v-2.4c0-.7-.1-1,0-1.5v-7.2c0-.6-.1-1.2,0-1.8v-1c-.1-.3,0-.7,0-1v-6.9c.1-.5,0-1,0-1.5v-3.5c0-.4-.1-.9-.1-1.3s0-.7-.1-1v-.4c-.1-.4-.2-.7-.4-1-.3-.7-.7-1.3-1.1-1.9-.1-.2,0-.3.1-.4,0,0,.2-.2.3,0,.4,0,.7,0,1,0s.8,0,1.1,0h.8c.8,0,1.5,0,2.2,0h6.9c.5,0,.9,0,1.4,0,.1,0,.3,0,.3.2h0c-.3.6-.6,1-.9,1.5-.1.3-.2.6-.3.8-.1.2-.3.9-.4,1v.2c0,.3-.2.6-.2.9v9c-.1,0-.1,1.5-.1,1.5v9l.2.9c0,.3-.2.6-.2.9v4.3c0,.6.2,1.2.3,1.8.2.4.2.7.3,1.1,0,.2.1.4.3.6.3.4.7.8,1.1,1.2,0,0,.1,0,.2.2.3.2.6.3.9.4.2,0,.9.2,1.1.3h.9c.2,0,.3,0,.4-.2,1.5-.5,2-1,2.5-1.7.1,0,.2-.3.2-.4l.3-.5c.2-.3.3-.6.4-.9.2-.4.2-.8.2-1.1v-1.9c0-.4,0-.8.1-1.3v-5.8c0-1.6,0-.6,0-.8,0-.4-.1-.8,0-1.3v-2.9c0-.7,0-1.5.1-2.2v-.2c.1-.7,0-1.4.1-2.1v-7.1c0,0,0-.3-.1-.4-.1-.3-.1-.7-.1-1.1l-.2-.9c-.1-.2-.1-.5-.2-.8-.2-.7-.5-1.3-1-1.8,0,0,0-.2-.1-.2s0-.2,0-.2c0,0,.1,0,.2,0h5.5c.2,0,.4.2.5.2h3.8c1.4,0,.8,0,1.1-.2h1.9c.6,0,.1,0,.2,0s.1.2,0,.3h0v.2Z"/>
        <path d="M311.3,113.2v.6c-.1.7-.1,1.3-.1,1.9v.4c-.1.5-.2,1-.2,1.5s-.2.9-.2,1.4,0,0,0,.2c-.2.7-.4,1.4-.4,2.1s-.2.6-.2.9-.2.6-.3.9l-.2.9c0,.3-.2.4-.2.7s-.1.6-.2.8c-.1.3-.3.7-.4,1,0,.2-.2.4-.3.6-.2.3-.3.6-.5.9-.4.7-.8,1.4-1.3,2.1-.2.3-.5.7-.8,1-.6.7-1.3,1.3-1.9,1.9-.5.4-1.1.8-1.7,1.1-.5.3-1.1.6-1.6.9h-.1c-.4,0-.7.2-1.1.3-.9.2-1.6.3-2.4.6-.6.1-1.2.1-1.8.2-.3-.1-.6,0-.9,0h-7.1c-.1,0-.2,0-.3-.1h-5.4c-.3,0-.6,0-.9-.1h-1c-.1,0-.3-.2-.2-.3s0-.2.1-.2c.2-.4.4-.7.6-1.1s.3-.8.3-1.1.2-.5.3-.8.2-.6.2-.9v-1.9c0-.3,0-.5.1-.7s.2-.5.2-.8c-.1-.4,0-.9,0-1.3v-2c0-.8.1-1.7.1-2.5v-3c.1-.5.1-1,0-1.5v-2.5c0-.2,0-.4-.1-.6v-.9c0-.3-.1-.6,0-.9s0-.6,0-.8v-.3c-.1-.6,0-1.2,0-1.8v-2.4c0-.3-.1-.6,0-.9v-3.7c0-.5,0-1-.1-1.6v-1.8c0-.3,0-.5-.1-.7s0-.4,0-.7v-1.6c0-.2-.2-.3-.2-.5s0-.4-.1-.6v-.4c-.1-.5-.3-.9-.5-1.3l-.5-1c-.1-.2-.2-.4-.4-.6-.1,0-.2-.3-.1-.4,0,0,.2-.3.3-.3h16.9c.5,0,1,.2,1.5.3.4,0,.9,0,1.4.3.6,0,1.1.3,1.8.6l.8.3c.5.3.9.6,1.4.9.4.3.8.6,1.1.9.2,0,.4.2.6.4.2,0,.3.3.5.4.4.3.7.6.9.9.5.6,1,1.3,1.5,1.9.5.7.9,1.5,1.3,2.3l.2.6c.2.5.4,1,.6,1.5.2.6.4,1.1.4,1.7l.2.4c.1.4.3.8.3,1.3s0,.2,0,.3c.1.3.2.6.2.9v.3c.2.5.2,1,.2,1.5s0,.7.1,1c.1.4.1.9.1,1.4s0,.8.1,1.2h0l-.5.4ZM300.9,114.9v-.8c0-.3-.1-.6,0-.9,0-.9-.1-1.8-.2-2.6v-.5c0,0,0-.2-.1-.3v-.9c0-.3-.3-.6-.3-.9s0-.5-.2-.8c-.1-.5-.3-1-.4-1.4-.2-.6-.4-1.3-.9-1.9-.3-.6-.8-1.2-1.4-1.6-.3-.2-.5-.4-.9-.7-.5-.2-.9-.3-1.4-.4-.5-.2-1-.3-1.5-.4h-.4c-.4-.2-.9-.2-1.3,0-.2,0-.3,0-.3.2,0,.3-.2.5,0,.8v.4c0,.3-.1.7-.1,1v9.1q0,.9-.1,1.3v2.2c0,.6,0,1.2.2,1.7v9.9c0,.3,0,.2.2.3,0,0,.7.2.9.2.3,0,.7,0,1,0s.8-.2,1.3-.2.8-.2,1.4-.2l.9-.6c.4-.2.7-.4,1-.8,0,0,.3-.2.4-.3.1,0,.2-.2.3-.4l.4-.6c0-.2.2-.2.2-.4.1-.4.3-.7.5-1,0-.2.1-.3.1-.5v-.3c.2-.4.3-.9.5-1.4.3-.6.4-1.1.4-1.7.1-.8.2-1.5.2-2.2s0-.7.1-.9v-1.2h0l-.5-.2Z"/>
        <path d="M322.6,136.2h-2.3c-.3,0-.1,0-.1,0-.1-.1-.1-.2,0-.3l.2-.2c.3-.3.5-.7.8-1.1l.3-.6c.2-.3.3-.8.4-1.1v-.4c0-.2,0-.5.1-.7.1-.4.1-.8.1-1.3v-1.6c0-.6,0-.4,0-.5,0-.4,0-.7.1-1v-3.1c0-1,0-.4,0-.7v-.8c0-.7,0-1.4.1-2.1v-1.6c-.2-.6-.1-1.2-.1-1.8s0-.4,0-.6c.1-.3.1-.7,0-1v-.4c0-.2.1-.4.1-.6v-9.6c0-.4,0-.8.1-1.3v-.8c-.1-.3-.1-.6,0-.8.1-.4.1-.9,0-1.4v-.9c.1-.4,0-.8,0-1.2v-.6c0-.3-.1-.6-.1-.9v-1.5c-.2-.6-.2-1.2-.4-1.8-.1-.4-.2-.7-.5-1-.2-.2-.4-.4-.6-.7,0,0-.1-.2,0-.3h.1c0,0,.1,0,.1,0h6.4c-.1,0,.1,0,.4,0,.4,0,.7-.2,1.1,0h1.8c.2,0,.5,0,.8,0h3s.2,0,.3.2v.4c-.4.3-.7.6-.8,1l-.4.9c-.2.6-.4,1.1-.5,1.7v.3c-.1.3-.2.7-.2,1v.5c-.2,1-.2,1.9-.1,2.9v2.6c0,.8-.1,3.7-.1,5.1v3.8c0,.6,0,1-.2,1.6v3.5c0,.9.1,1.8.1,2.8s0,.4,0,.7v3.3c0,.8,0,1.5.1,2.2v1.3c0,.4.1.7.1,1.1v1c0,.5,0,1,.2,1.5v.3c0,.4.1.9.2,1.4.1.4.3.8.4,1.2.2.4.4.9.9,1.2,0,0,0,.1.1.2.2.2,0,.6-.2.7h-9.2c-1-.1-1.9,0-2.9,0h.3Z"/>
        <path d="M344.3,118.1v-4.4c0-.6,0-1,.1-1.6v-1.5c0-.5,0-.8.1-1.3,0-.3.1-.6.1-.9v-.3c0-.3.2-.6.2-.9s.1-.6.3-.9v-.6c0,0,0-.3.1-.4.1-.3.1-.6.3-.9.1-.3.2-.6.2-.9v-.4c.1-.3.3-.7.3-1.1l.2-.6c.2-.2.2-.4.3-.7.1-.3.2-.7.3-1.1.2-.4.4-.9.6-1.3s.3-.8.7-1.2c.1-.2.3-.4.3-.6s.1-.2.2-.3c.2-.2.3-.3.4-.6s.5-.6.7-.8c.4-.4.8-.8,1.3-1.3.2-.2.3-.3.5-.4.3-.2.7-.4,1-.7.2-.2.4-.3.7-.4.4,0,.9-.3,1.3-.5.2,0,.5-.2.7-.2.4,0,.9-.3,1.4-.4l1-.2h2.1c.3,0,1,0,1.3,0,.7,0,1,0,1.3,0h1.6c.4,0,.8.2,1.1.3l.4.2c.7,0,1.2.3,1.8.6.2,0,.3,0,.5.3l.3.2s.2,0,.2,0c.4.3.9.6,1.3.8.5.4.9.7,1.3,1.1.4.2.7.5.9.9.1.2.3.3.5.5.3.5.7,1,1,1.6.5.7.8,1.4,1,2.2.1.3.2.7.4,1.1.2.7.4,1.4.6,2.1-.1.2,0,.3.3,1l.2.9c.2.7.3,1.3.4,1.9v.3c0,.4.2.8.2,1.3s0,.9.1,1.4v1.3c.1.2.1.5.1.8v1.3c0,.9,0,1.9-.1,2.8v.8c-.1,1.1-.2,2.1-.2,3.1s0,.4-.1.6c0,.3,0,.6-.1.8l-.2.7c-.1.3-.1.6-.2.8,0,.3,0,.5-.2.8-.1.3-.2.6-.3.9,0,.2-.2.4-.3.7-.2.4-.3.8-.4,1.1-.2.4-.3.7-.4,1.1s-.3.7-.5,1.1c-.2.5-.4.9-.7,1.2-.2.4-.4.8-.7,1-.2.3-.4.7-.8.9-.1.2-.3.3-.4.6-.3.4-.8.9-1.3,1.3-.2.1-.3.3-.5.4,0,.1-.1.1-.2.2-.3.2-.6.5-.9.7s-.5.4-.9.6c-.3,0-.7.2-.9.4,0,0-.2,0-.3.1-.2.1-.4.2-.7.3-.3.1-.7.4-1,.5-.4,0-.7.3-1.1.4h-.7c-.3,0-.4,0-.6.1-.3,0-.5.1-.8.1-.9.1-1.1,0-2.1,0s-.5,0-.7-.1h-.5c-1-.2-1.6-.3-2.5-.7l-1.9-.7c-.9-.4-1.7-.9-2.5-1.5-.9-.6-1.6-1.2-2.4-1.9-.2-.3-.5-.7-.8-1-.4-.4-.8-.8-1-1.3-.1-.2-.2-.3-.3-.5-.2-.3-.5-.6-.6-1,0,0,0-.1-.2-.2-.3-.4-.4-.8-.5-1.3s-.2-1-.4-1.4c-.2-.3-.2-.7-.3-1.1-.1-.3-.1-.7-.2-1-.1,0-.1-.2-.1-.4,0-.3,0-.6-.2-.9-.1-.2,0-.4-.1-.6,0-.4,0-.7-.2-1v-1.1c-.2-.4-.1-.9-.2-1.4h1ZM354.7,113.1c-.1.4,0,.8,0,1.1v3c0,.5,0,.9.2,1.3v.2c0,.7,0,1.3.2,1.9,0,.4.2.8.3,1.3v.4c.2.4.4.9.5,1.5.1.3.2.6.3.8.2.3.2.6.4.9l.3.8c.2.4.5.7.8,1,.1,0,.2.2.4.2.4.2.8.5,1,.8.2,0,.3,0,.5.1.6.3.9.3,1.5.1.5-.2.9-.4,1.3-.8.2-.2.3-.3.5-.4.2-.3.3-.6.4-.8.2-.3.4-.6.6-.8.2-.4.3-.7.5-1.1s.3-.8.4-1.1.2-.6.2-.9,0-.3.1-.4c.2-.5.4-1,.5-1.4,0-.6.2-1.2.2-1.8.1-.5.2-.9.2-1.4s0-1.1.1-1.7c.1,0,.1-.3.1-.4v-.4c.1-.9.2-1.8,0-2.6v-2.1c0-.3-.2-.7-.2-1,0-.6,0-1.2-.2-1.6,0-.2,0-.4-.1-.7-.1-.5-.2-1-.2-1.5-.1-.4-.3-.9-.3-1.3s-.2-.4-.2-.6v-.4c-.3-.5-.5-1-.8-1.6-.2-.3-.4-.5-.7-.7-.3-.2-.6-.5-.9-.7-.7-.3-1.4-.6-2.2-.7h-1.3c-.2,0-.4,0-.7.2-.2,0-.4.2-.6.4-.3.2-.5.4-.7.7-.3.6-.7,1.2-1,1.8-.1,0-.6,1.5-.7,1.9,0,.3-.2.6-.3.9-.2.3-.2.5-.3.8s0,.6-.1.8c-.2.2-.2.6-.2.8v1.3c-.2.9-.2,1.9-.2,2.8v1.4h0l.4-.3Z"/>
      </g>
    </g>
  </g>
</svg>